<svg xmlns="http://www.w3.org/2000/svg" preserveAspectRatio="xMidYMid" width="17.87" height="15.531"><path d="M8.943 15.526a.698.698 0 01-.28-.057C8.31 15.32.013 11.72.013 4.71.104 2.06 2.22.002 4.831.002c1.743 0 3.266.918 4.112 2.31a4.796 4.796 0 014.112-2.31c2.609 0 4.725 2.058 4.817 4.684 0 7.034-8.297 10.634-8.649 10.783a.701.701 0 01-.28.057zM4.831 1.387c-1.847 0-3.343 1.47-3.408 3.347 0 5.407 6.125 8.662 7.52 9.334 1.395-.672 7.52-3.93 7.52-9.358-.065-1.853-1.563-3.323-3.408-3.323s-3.342 1.47-3.408 3.347a.699.699 0 01-.704.669.7.7 0 01-.705-.669c-.064-1.877-1.561-3.347-3.407-3.347z" class="cls-1"/></svg>