<svg xmlns="http://www.w3.org/2000/svg" preserveAspectRatio="xMidYMid" width="36.41" height="37.719"><path fill="#a3bbc8" d="M35.489 11.742l-17.485 17.64a.914.914 0 01-.396.234l-5.697 1.595a5.076 5.076 0 01-.226.029H7.059a.907.907 0 01-.901-.911c0-.502.404-.909.901-.909h3.94l1.394-5.066a.907.907 0 01.231-.4l.014-.015H7.059a.906.906 0 01-.901-.91c0-.503.404-.91.901-.91h7.384l5.432-5.48H7.059a.906.906 0 01-.901-.91c0-.504.404-.911.901-.911H21.68l8.429-8.503a3.036 3.036 0 014.318 0l1.062 1.071a3.102 3.102 0 010 4.356zM13.718 26.345l-.736 2.677 2.652-.744-1.916-1.933zm15.254-16.308L14.538 24.598l2.827 2.853L31.8 12.889l-2.828-2.852zm5.24-1.364L33.15 7.602a1.241 1.241 0 00-1.766 0l-1.136 1.147 2.828 2.853 1.136-1.147a1.27 1.27 0 000-1.782zm-5.67-2.91a.907.907 0 01-.902-.91V1.98a.17.17 0 00-.168-.17H9.284v5.552c0 1.097-.886 1.99-1.974 1.99H1.807v26.367c0 .093.076.17.168.17h25.497a.17.17 0 00.168-.17V21.817c0-.502.404-.91.902-.91s.902.408.902.91v13.902a1.984 1.984 0 01-1.973 1.991H1.975a1.984 1.984 0 01-1.973-1.991V8.441c0-.241.095-.472.264-.643L7.742.256a.9.9 0 01.639-.267h19.091c1.088 0 1.972.893 1.972 1.991v2.873c0 .502-.404.91-.902.91zM7.478 3.097L3.083 7.532H7.31a.17.17 0 00.168-.17V3.097z" class="cls-1"/></svg>