<svg xmlns="http://www.w3.org/2000/svg" preserveAspectRatio="xMidYMid" width="37" height="33.968"><path fill="#a3bbc8" d="M36.053 33.932L.976 33.98H.975a.957.957 0 01-.669-.272.922.922 0 01-.278-.659L0 12.848l.001-.017a.927.927 0 01.408-.754l5.322-3.616V4.623a.94.94 0 01.948-.932h6.067L17.963.145a.96.96 0 011.079.001l5.185 3.545h6.093a.94.94 0 01.947.932v3.882l5.297 3.621c.189.13.316.315.373.519a.528.528 0 01.034.184l.028 20.17a.94.94 0 01-.946.933zm-2.827-1.86L18.514 20.848 3.748 32.113l29.478-.041zM5.731 10.724l-3.118 2.12 3.118 2.121v-4.241zm-3.834 3.901l.023 16.523 11.443-8.73-11.466-7.793zM18.5 2.046l-2.421 1.645h4.828L18.5 2.046zm10.872 3.509H7.626v10.697l7.308 4.968 2.999-2.288a.959.959 0 011.148-.008l.013.008 2.977 2.272 7.301-4.993V5.555zm1.895 5.22v4.141l3.028-2.071-3.028-2.07zm3.811 3.804L23.64 22.4l11.461 8.744-.023-16.565zm-23.941.482a.94.94 0 01.948-.932h12.83a.94.94 0 01.946.932.94.94 0 01-.946.933h-12.83a.94.94 0 01-.948-.933zm13.778-3.914h-12.83a.94.94 0 01-.948-.932.94.94 0 01.948-.932h12.83a.94.94 0 01.946.932.94.94 0 01-.946.932z" class="cls-1"/></svg>