<svg xmlns="http://www.w3.org/2000/svg" preserveAspectRatio="xMidYMid" width="31" height="44"><path fill="#a3bbc8" d="M30.525 43.047c-.49.5-1.222.64-1.863.355l-5.665-2.51-6.594 2.917a2.216 2.216 0 01-1.806 0l-6.584-2.917-5.674 2.51a1.65 1.65 0 01-1.864-.355c-.49-.5-.613-1.23-.313-1.862l4.994-10.516a1.107 1.107 0 011.986-.022c.165.331.148.706-.014 1.009L2.785 40.8l4.32-1.914a2.227 2.227 0 011.806.001l6.583 2.916h.011l6.585-2.917a2.223 2.223 0 011.804 0l4.32 1.914-4.342-9.145a1.093 1.093 0 01.174-1.275 1.107 1.107 0 011.798.288l4.994 10.518c.299.631.177 1.36-.313 1.861zm-2.628-22.764L18.349 36.21a3.291 3.291 0 01-2.849 1.611 3.293 3.293 0 01-2.85-1.611L3.102 20.283c-.011-.02-.023-.041-.033-.062A13.883 13.883 0 011.54 13.81c.023-3.642 1.464-7.083 4.061-9.689a13.9 13.9 0 019.701-4.12 13.895 13.895 0 019.999 4.001 13.76 13.76 0 014.158 9.892c0 2.229-.514 4.357-1.528 6.327l-.034.062zM23.752 5.564a11.696 11.696 0 00-8.419-3.366C8.982 2.285 3.785 7.501 3.747 13.823a11.521 11.521 0 001.269 5.366l9.529 15.896c.292.487.765.54.955.54.19 0 .663-.053.955-.54l9.528-15.896a11.522 11.522 0 001.27-5.295c0-3.155-1.244-6.113-3.501-8.33zM15.5 18.921c-2.785 0-5.051-2.254-5.051-5.027 0-2.772 2.266-5.026 5.051-5.026s5.051 2.254 5.051 5.026c0 2.773-2.266 5.027-5.051 5.027zm0-7.857a2.842 2.842 0 00-2.845 2.83 2.842 2.842 0 002.845 2.832 2.84 2.84 0 002.844-2.832 2.84 2.84 0 00-2.844-2.83z" class="cls-1"/></svg>