<svg xmlns="http://www.w3.org/2000/svg" preserveAspectRatio="xMidYMid" width="48.03" height="63.94"><path d="M47.521 22.442a3.45 3.45 0 01.001 3.575l-1.314 2.174c-.173.287-.24.627-.188.958l.391 2.513a3.433 3.433 0 01-1.359 3.309l-2.036 1.495c-.27.198-.461.486-.539.813l-.593 2.473a3.403 3.403 0 01-2.506 2.529l-.984.241 6.927 15.6c.147.331.107.717-.107 1.009a.993.993 0 01-.922.404l-5.572-.672-3.209 4.645a.996.996 0 01-.912.427.999.999 0 01-.818-.591L26.701 47.4l-.929.572a3.371 3.371 0 01-3.541 0l-.896-.552-7.071 15.924a1.002 1.002 0 01-.912.596.994.994 0 01-.818-.432l-3.21-4.645-5.571.672a.994.994 0 01-.923-.404 1.016 1.016 0 01-.107-1.009l6.924-15.591-1.023-.25a3.405 3.405 0 01-2.505-2.53l-.593-2.473a1.42 1.42 0 00-.539-.813l-2.036-1.494a3.437 3.437 0 01-1.359-3.311l.392-2.511a1.429 1.429 0 00-.188-.958L.482 26.017a3.448 3.448 0 010-3.575l1.314-2.175c.173-.286.24-.626.188-.958l-.391-2.512a3.432 3.432 0 011.359-3.31l2.036-1.495c.269-.197.46-.486.539-.812l.593-2.474a3.403 3.403 0 012.505-2.529l2.45-.599c.324-.079.61-.272.806-.543l1.48-2.056a3.372 3.372 0 013.279-1.371l2.488.395c.329.052.666-.016.949-.19L22.231.487a3.36 3.36 0 013.541 0l2.155 1.326c.283.175.621.242.949.19l2.488-.395a3.372 3.372 0 013.279 1.372l1.481 2.055c.196.272.482.465.805.544l2.45.599a3.403 3.403 0 012.506 2.529l.593 2.474c.078.326.269.614.538.812l2.036 1.495a3.432 3.432 0 011.359 3.31l-.391 2.511c-.052.332.015.672.188.958l1.313 2.175zM34.882 60.895l2.543-3.681a.994.994 0 01.938-.425l4.415.533-6.319-14.229c-.128.09-.243.201-.336.331l-1.481 2.055c-.132.184-.281.35-.442.501l3.333 7.506a1.012 1.012 0 01-.502 1.332 1 1 0 01-1.32-.508L32.4 46.854a3.402 3.402 0 01-1.037-.003l-2.487-.395a1.395 1.395 0 00-.408-.004l6.414 14.443zM5.267 57.322l4.415-.533a.994.994 0 01.937.425l2.544 3.681 6.411-14.437a1.368 1.368 0 00-.447-.003l-2.488.395a3.37 3.37 0 01-.997.01l-3.309 7.45a.998.998 0 01-.912.596 1.01 1.01 0 01-.91-1.42l3.32-7.478a3.423 3.423 0 01-.471-.53l-1.481-2.055a1.405 1.405 0 00-.304-.307L5.267 57.322zm40.549-33.831l-1.313-2.174a3.467 3.467 0 01-.456-2.321l.392-2.511a1.419 1.419 0 00-.561-1.367l-2.036-1.495a3.433 3.433 0 01-1.305-1.969l-.593-2.473a1.404 1.404 0 00-1.034-1.044l-2.45-.599a3.403 3.403 0 01-1.951-1.317l-1.481-2.056a1.392 1.392 0 00-1.353-.566l-2.489.395a3.374 3.374 0 01-2.299-.46l-2.155-1.326a1.384 1.384 0 00-1.461 0l-2.154 1.326a3.382 3.382 0 01-2.3.46l-2.487-.395a1.391 1.391 0 00-1.354.566L13.495 6.22a3.404 3.404 0 01-1.95 1.318l-2.45.598c-.514.126-.91.525-1.035 1.044l-.593 2.473a3.44 3.44 0 01-1.304 1.969l-2.037 1.495a1.42 1.42 0 00-.561 1.367l.392 2.512a3.463 3.463 0 01-.456 2.32l-1.314 2.175a1.423 1.423 0 000 1.476l1.314 2.174c.419.694.58 1.519.455 2.321l-.391 2.512a1.416 1.416 0 00.561 1.366l2.035 1.495a3.436 3.436 0 011.305 1.969l.593 2.473c.125.519.521.919 1.035 1.044l2.45.599a3.41 3.41 0 011.95 1.317l1.481 2.056c.312.432.83.649 1.354.566l2.488-.395a3.377 3.377 0 012.299.46l2.155 1.326c.45.278 1.011.278 1.462 0l2.154-1.326a3.38 3.38 0 012.299-.46l2.488.395a1.388 1.388 0 001.353-.566l1.481-2.055a3.4 3.4 0 011.951-1.317l2.45-.599c.513-.125.91-.525 1.034-1.044l.593-2.473c.19-.791.653-1.49 1.305-1.969l2.036-1.495c.429-.315.644-.838.561-1.366l-.391-2.512a3.466 3.466 0 01.456-2.321l1.313-2.175a1.423 1.423 0 000-1.476zM36.71 37.085a17.94 17.94 0 01-12.771 5.33c-3.887 0-7.787-1.26-11.047-3.82a1.015 1.015 0 01-.174-1.415.992.992 0 011.401-.176c6.363 4.999 15.468 4.421 21.179-1.344a16.277 16.277 0 002.982-18.75 1.01 1.01 0 01.441-1.353.993.993 0 011.341.445 18.302 18.302 0 01-3.352 21.083zm.025-23.247a.995.995 0 01-.749-.34 16.525 16.525 0 00-1.42-1.433 1.014 1.014 0 01-.086-1.423.991.991 0 011.409-.088 18.287 18.287 0 011.594 1.609 1.015 1.015 0 01-.087 1.423.991.991 0 01-.661.252zm-1.05 7.255c.22.684.032 1.412-.491 1.9l-4.441 4.146 1.179 5.991a1.812 1.812 0 01-.71 1.828 1.77 1.77 0 01-1.941.116l-5.279-2.983-5.28 2.983a1.792 1.792 0 01-.883.235c-.371 0-.74-.118-1.058-.351a1.812 1.812 0 01-.71-1.828l1.179-5.991-4.441-4.146a1.815 1.815 0 01-.491-1.9 1.792 1.792 0 011.503-1.246l6.008-.719 2.534-5.546a1.787 1.787 0 011.639-1.058c.712 0 1.34.406 1.638 1.058l2.534 5.546 6.008.719a1.792 1.792 0 011.503 1.246zm-8.301-.03a.997.997 0 01-.789-.578l-2.593-5.675-2.593 5.675a1 1 0 01-.79.578l-6.148.736 4.545 4.243c.255.239.37.593.302.937l-1.207 6.13 5.403-3.053a.994.994 0 01.975 0l5.403 3.053-1.207-6.13a1.018 1.018 0 01.302-.937l4.545-4.243-6.148-.736zm3.805-11.312c-6.198-3.161-13.663-1.952-18.577 3.008-5.711 5.765-6.283 14.957-1.331 21.38.339.439.26 1.073-.175 1.415a.992.992 0 01-1.401-.177C4.136 28.153 4.778 17.816 11.2 11.334c5.525-5.578 13.92-6.937 20.889-3.382.493.251.69.857.441 1.354a.993.993 0 01-1.341.445z" fill="#243f4d" fill-rule="evenodd"/></svg>