<svg xmlns="http://www.w3.org/2000/svg" preserveAspectRatio="xMidYMid" width="13.63" height="13.66"><path d="M13.42 10.779c-.424 1.558-1.44 2.479-3.016 2.732-.589.095-2.18.152-3.768.152-1.626 0-3.25-.06-3.796-.202-1.549-.4-2.473-1.409-2.719-2.978-.184-1.152-.203-6.505.129-7.668C.684 1.301 1.695.412 3.227.16 3.921.046 5.279.006 6.65.006c1.275 0 2.561.035 3.335.077.938.05 1.796.351 2.493 1.021.665.636 1.005 1.431 1.09 2.331.102 1.074.168 6.154-.148 7.344zM12.339 3.55c-.122-1.202-.857-1.991-2.045-2.178-.589-.089-2.006-.129-3.416-.129-1.36 0-2.714.037-3.309.101-1.191.138-1.992.873-2.183 2.058-.195 1.255-.193 5.951-.047 6.895.152.981.707 1.656 1.686 1.93.53.149 2.118.202 3.674.202 1.433 0 2.84-.045 3.368-.103 1.203-.132 1.998-.872 2.188-2.068.196-1.201.196-5.584.084-6.708zm-1.857.471a.82.82 0 01.008-1.639h.009c.451 0 .815.367.812.822a.828.828 0 01-.829.817zm-3.69 6.319a3.469 3.469 0 01-3.474-3.505A3.53 3.53 0 016.85 3.336a3.471 3.471 0 013.473 3.505 3.535 3.535 0 01-3.531 3.499zm.065-5.77h-.02a2.287 2.287 0 00-2.284 2.243A2.244 2.244 0 006.779 9.1l.02.001c1.242 0 2.264-1 2.285-2.244A2.243 2.243 0 006.857 4.57z" class="cls-1"/></svg>