<svg xmlns="http://www.w3.org/2000/svg" preserveAspectRatio="xMidYMid" width="18.03" height="11.41"><path d="M18.019 4.624v.055l-.011 1.442-.001.06h-1.991l-.015 1.931v.055h-1.558l.001-.055.014-1.931h-1.991l.001-.06.011-1.442v-.055h1.991l.015-1.936v-.055h1.558v.055l-.015 1.936h1.991zm-10.79 6.577a6.14 6.14 0 01-1.872.186c-1.118-.066-2.135-.417-3.036-1.081C1.159 9.451.428 8.31.12 6.9a5.155 5.155 0 01-.108-1.535 5.59 5.59 0 011.286-3.259A5.65 5.65 0 014.368.154c.313-.083.626-.132.944-.149.181-.005.363-.016.544-.016a5.356 5.356 0 012.698.74c.557.319.873.642 1.009.741-.569.559-1.116 1.108-1.674 1.656-.415-.357-.873-.685-1.667-.806a3.388 3.388 0 00-.487-.036c-1.594 0-2.93 1.153-3.285 2.663a3.15 3.15 0 00-.08 1.032 3.415 3.415 0 002.331 2.967 3.309 3.309 0 001.233.143c.599-.039 1.159-.198 1.666-.532.855-.582 1.131-1.492 1.133-1.717H5.678l.016-2.2.006-.093h5.364c.289 1.673.029 3.433-1.013 4.81-.72.949-1.679 1.547-2.822 1.844z" class="cls-1"/></svg>