<svg xmlns="http://www.w3.org/2000/svg" preserveAspectRatio="xMidYMid" width="37" height="44"><path fill="#a3bbc8" d="M31.941 21.338c-2.79 0-5.06-2.24-5.06-4.995 0-2.754 2.27-4.995 5.06-4.995 2.789 0 5.059 2.241 5.059 4.995 0 2.755-2.27 4.995-5.059 4.995zm0-8.04c-1.701 0-3.084 1.366-3.084 3.045 0 1.68 1.383 3.045 3.084 3.045 1.7 0 3.084-1.365 3.084-3.045 0-1.679-1.384-3.045-3.084-3.045zm0-3.296c-2.79 0-5.06-2.241-5.06-4.995 0-2.755 2.27-4.995 5.06-4.995C34.73.012 37 2.252 37 5.007c0 2.754-2.27 4.995-5.059 4.995zm0-8.041c-1.701 0-3.084 1.367-3.084 3.046 0 1.679 1.383 3.046 3.084 3.046 1.7 0 3.084-1.367 3.084-3.046 0-1.679-1.384-3.046-3.084-3.046zm-13.442 42.05c-2.789 0-5.059-2.241-5.059-4.995s2.27-4.995 5.059-4.995c2.79 0 5.06 2.241 5.06 4.995 0 2.755-2.27 4.995-5.06 4.995zm0-8.04c-1.7 0-3.084 1.366-3.084 3.045 0 1.679 1.384 3.045 3.084 3.045 1.701 0 3.086-1.366 3.086-3.045 0-1.679-1.385-3.045-3.086-3.045zm0-3.296c-2.789 0-5.059-2.241-5.059-4.995 0-2.755 2.27-4.995 5.059-4.995 2.79 0 5.06 2.24 5.06 4.995 0 2.754-2.27 4.995-5.06 4.995zm0-8.041c-1.7 0-3.084 1.367-3.084 3.046 0 1.679 1.384 3.046 3.084 3.046 1.701 0 3.086-1.367 3.086-3.046 0-1.679-1.385-3.046-3.086-3.046zm0-3.296c-2.789 0-5.059-2.24-5.059-4.995 0-2.754 2.27-4.995 5.059-4.995 2.79 0 5.06 2.241 5.06 4.995 0 2.755-2.27 4.995-5.06 4.995zm0-8.04c-1.7 0-3.084 1.366-3.084 3.045 0 1.68 1.384 3.045 3.084 3.045 1.701 0 3.086-1.365 3.086-3.045 0-1.679-1.385-3.045-3.086-3.045zm0-3.296c-2.789 0-5.059-2.241-5.059-4.995 0-2.755 2.27-4.995 5.059-4.995 2.79 0 5.06 2.24 5.06 4.995 0 2.754-2.27 4.995-5.06 4.995zm0-8.041c-1.7 0-3.084 1.367-3.084 3.046 0 1.679 1.384 3.046 3.084 3.046 1.701 0 3.086-1.367 3.086-3.046 0-1.679-1.385-3.046-3.086-3.046zM5.059 32.675C2.269 32.675 0 30.434 0 27.68c0-2.755 2.269-4.995 5.059-4.995s5.059 2.24 5.059 4.995c0 2.754-2.269 4.995-5.059 4.995zm0-8.041c-1.701 0-3.085 1.367-3.085 3.046 0 1.679 1.384 3.046 3.085 3.046s3.084-1.367 3.084-3.046c0-1.679-1.383-3.046-3.084-3.046zm0-3.296c-2.79 0-5.059-2.24-5.059-4.995 0-2.754 2.269-4.995 5.059-4.995s5.059 2.241 5.059 4.995c0 2.755-2.269 4.995-5.059 4.995zm0-8.04c-1.701 0-3.085 1.366-3.085 3.045 0 1.68 1.384 3.045 3.085 3.045s3.084-1.365 3.084-3.045c0-1.679-1.383-3.045-3.084-3.045zm0-3.296C2.269 10.002 0 7.761 0 5.007 0 2.252 2.269.012 5.059.012s5.059 2.24 5.059 4.995c0 2.754-2.269 4.995-5.059 4.995zm0-8.041c-1.701 0-3.085 1.367-3.085 3.046 0 1.679 1.384 3.046 3.085 3.046s3.084-1.367 3.084-3.046c0-1.679-1.383-3.046-3.084-3.046zm26.882 20.724c2.789 0 5.059 2.24 5.059 4.995 0 2.754-2.27 4.995-5.059 4.995-2.79 0-5.06-2.241-5.06-4.995 0-2.755 2.27-4.995 5.06-4.995zm0 8.041c1.7 0 3.084-1.367 3.084-3.046 0-1.679-1.384-3.046-3.084-3.046-1.701 0-3.084 1.367-3.084 3.046 0 1.679 1.383 3.046 3.084 3.046z" class="cls-1"/></svg>