<svg xmlns="http://www.w3.org/2000/svg" preserveAspectRatio="xMidYMid" width="18" height="14.81"><path d="M16.714 12.328H5.766L3.303 14.69a.441.441 0 01-.467.089.413.413 0 01-.265-.38v-2.071H1.286C.577 12.328 0 11.775 0 11.095V1.234C0 .554.577.001 1.286.001h15.428C17.423.001 18 .554 18 1.234v9.861c0 .68-.577 1.233-1.286 1.233zm.429-11.094a.42.42 0 00-.429-.411H1.286a.42.42 0 00-.429.411v9.861a.42.42 0 00.429.411H3a.42.42 0 01.428.411v1.49l1.857-1.78a.441.441 0 01.303-.121h11.126a.42.42 0 00.429-.411V1.234zm-4.8 5.547a.63.63 0 01-.643-.616.63.63 0 01.643-.617.63.63 0 01.643.617.63.63 0 01-.643.616zM9 6.781a.63.63 0 01-.643-.616A.63.63 0 019 5.548a.63.63 0 01.643.617.63.63 0 01-.643.616zm-3.586 0a.63.63 0 01-.642-.616.63.63 0 01.642-.617.63.63 0 01.643.617.63.63 0 01-.643.616z" class="cls-1"/></svg>