<svg xmlns="http://www.w3.org/2000/svg" preserveAspectRatio="xMidYMid" width="64" height="40"><path d="M41.62 27.459a.996.996 0 011.002.99c0 .547-.449.99-1.002.99H26.655a.996.996 0 01-1.002-.99c0-.547.449-.99 1.002-.99H41.62zM24.518 20.99c-.257 0-.513-.097-.709-.29l-5.344-5.281a.98.98 0 010-1.4 1.012 1.012 0 011.417 0l4.636 4.58 8.911-8.804a1.01 1.01 0 011.417 0 .98.98 0 010 1.4l-9.62 9.505c-.195.193-.452.29-.708.29zm38.48 12.673h-3.276l.002.066c0 3.458-2.847 6.27-6.346 6.27-3.5 0-6.347-2.812-6.347-6.27l.002-.066H24.449l.002.066c0 3.458-2.847 6.27-6.347 6.27-3.499 0-6.346-2.812-6.346-6.27l.002-.066H6.347c-1.142 0-2.071-.918-2.071-2.046v-2.179H1.002A.996.996 0 010 28.448c0-.547.449-.99 1.002-.99h9.62a.996.996 0 011.002.99c0 .547-.449.99-1.002.99H6.28v2.179c0 .036.03.066.066.066h5.761a6.35 6.35 0 015.997-4.225 6.351 6.351 0 015.998 4.225h20.791v-7.459c0-.547.449-.99 1.002-.99a.996.996 0 011.002.99v7.459h.483a6.35 6.35 0 015.998-4.224 6.349 6.349 0 015.997 4.224h2.621v-4.356H60.86c-1.732 0-3.14-1.392-3.14-3.103v-2.112c0-.547.449-.99 1.002-.99h3.116a3.274 3.274 0 00-3.114-2.244H46.898V20c0 .547-.449.99-1.003.99a.996.996 0 01-1.002-.99V2.046a.066.066 0 00-.066-.066H6.346a.066.066 0 00-.066.066V20c0 .547-.449.99-1.002.99A.996.996 0 014.275 20V2.046C4.275.918 5.204 0 6.346 0h38.481c1.142 0 2.071.918 2.071 2.046v2.178h7.549c2.32 0 4.208 1.866 4.208 4.159v1.056c0 .476-.34.873-.793.968l1.658 6.55c2.533.381 4.48 2.547 4.48 5.155v10.561c0 .547-.449.99-1.002.99zm-44.894-4.224c-2.394 0-4.342 1.924-4.342 4.29s1.948 4.291 4.342 4.291c2.395 0 4.343-1.925 4.343-4.291 0-2.366-1.948-4.29-4.343-4.29zm35.274 0c-2.395 0-4.343 1.924-4.343 4.29s1.948 4.291 4.343 4.291c2.394 0 4.342-1.925 4.342-4.291 0-2.366-1.948-4.29-4.342-4.29zm3.273-21.056c0-1.201-.989-2.179-2.204-2.179h-7.549v2.245h9.753v-.066zm-.849 2.046h-8.904v6.469h10.541l-1.637-6.469zm6.194 12.673h-2.272v1.122c0 .619.51 1.122 1.136 1.122h1.136v-2.244zm-8.618 12.674c-1.142 0-2.071-.918-2.071-2.047 0-1.128.929-2.046 2.071-2.046 1.142 0 2.071.918 2.071 2.046 0 1.129-.929 2.047-2.071 2.047zm-35.274 0c-1.142 0-2.071-.918-2.071-2.047 0-1.128.929-2.046 2.071-2.046 1.142 0 2.071.918 2.071 2.046 0 1.129-.929 2.047-2.071 2.047zm-1.135-11.552c0 .547-.449.99-1.002.99H3.14a.996.996 0 01-1.002-.99c0-.547.448-.99 1.002-.99h12.827a.996.996 0 011.002.99z" fill="#243f4d" fill-rule="evenodd"/></svg>