<svg xmlns="http://www.w3.org/2000/svg" preserveAspectRatio="xMidYMid" width="22.66" height="14.38"><path fill="#888" d="M22.661 5.835v.069l-.014 1.816-.001.076H20.14l-.018 2.431-.001.069H18.16v-.069l.019-2.431h-2.507l.001-.076.014-1.816v-.069h2.507l.018-2.438.001-.069h1.961l-.001.069-.018 2.438h2.506zm-13.584 8.28a7.722 7.722 0 01-2.356.235c-1.409-.083-2.689-.525-3.823-1.361C1.436 11.912.515 10.475.128 8.701A6.498 6.498 0 01-.01 6.767a7.048 7.048 0 011.62-4.102A7.123 7.123 0 015.475.207a5.767 5.767 0 011.19-.186C6.892.013 7.12 0 7.348 0a6.743 6.743 0 013.398.932c.701.401 1.098.808 1.269.932-.716.705-1.404 1.395-2.107 2.086-.522-.45-1.099-.863-2.099-1.016a4.423 4.423 0 00-.613-.044c-2.007 0-3.688 1.451-4.136 3.353a3.945 3.945 0 00-.1 1.298c.153 1.768 1.336 3.218 2.935 3.736.407.128.829.189 1.254.189.099 0 .198-.003.298-.009.753-.049 1.458-.249 2.098-.671 1.075-.732 1.423-1.878 1.425-2.161H7.124l.021-2.77.007-.117h6.754c.364 2.107.036 4.323-1.275 6.056-.907 1.195-2.114 1.948-3.554 2.321z" class="cls-1"/></svg>