<svg xmlns="http://www.w3.org/2000/svg" preserveAspectRatio="xMidYMid" width="50.875" height="53.13"><g fill="#a3bbc8" fill-rule="evenodd"><path d="M41.078 33.504c5.411 0 9.797 4.393 9.797 9.812s-4.386 9.813-9.797 9.813c-5.41 0-9.797-4.394-9.797-9.813 0-5.419 4.387-9.812 9.797-9.812z" opacity=".34"/><path d="M24.557 49.116A24.349 24.349 0 019.829 44.21a.937.937 0 111.125-1.499 22.49 22.49 0 0013.603 4.529c12.506 0 22.681-10.174 22.681-22.68 0-4.254-1.184-8.399-3.424-11.988a.939.939 0 011.592-.993 24.5 24.5 0 013.707 12.981c0 13.54-11.016 24.556-24.556 24.556zm9.32-13.722a.939.939 0 01-.938-.938v-5.5h-6.938a.94.94 0 01-.805-1.419l7.875-13.188a.938.938 0 011.742.472l.001.008v7.609a.937.937 0 11-1.875 0v-4.21l-5.286 8.852h5.286v-1.516a.938.938 0 011.875 0v1.516h2.601a.938.938 0 010 1.876h-2.601v5.5c0 .517-.42.938-.937.938zM17.469 15.767a3.973 3.973 0 00-3.969 3.969.938.938 0 01-1.875 0 5.85 5.85 0 015.844-5.844 5.851 5.851 0 015.844 5.844 12.7 12.7 0 01-3.744 9.039l-4.743 4.743h7.55a.938.938 0 01-.001 1.876h-9.813a.938.938 0 01-.663-1.601l6.344-6.343c2.06-2.06 3.195-4.8 3.195-7.714a3.974 3.974 0 00-3.969-3.969zm24.457-6.299l-4.06.096h-.023a.937.937 0 01-.022-1.874l1.843-.043a22.758 22.758 0 00-15.107-5.768c-12.506 0-22.681 10.175-22.681 22.681 0 6.14 2.415 11.891 6.799 16.193a.936.936 0 11-1.312 1.338C2.616 37.435.001 31.208.001 24.56.001 11.02 11.017.004 24.557.004c3.485 0 6.853.715 10.01 2.126a24.43 24.43 0 016.345 4.112l-.042-1.749a.939.939 0 011.875-.045l.096 4.061a.937.937 0 01-.915.959z"/></g></svg>