<svg viewBox="0 0 448 512" xmlns="http://www.w3.org/2000/svg" xmlns:xlink="http://www.w3.org/1999/xlink"><style>:root&gt;svg{display:none}:root&gt;svg:target{display:block}</style><svg preserveAspectRatio="xMidYMid" viewBox="0 0 18.94 16.969" id="cart" xmlns="http://www.w3.org/2000/svg"><path d="M18.936 3.932l-2.123 7.956a.594.594 0 01-.573.44H5.885a.044.044 0 00-.023 0c-1.329.001-2.205.493-2.68 1.509a.593.593 0 01-1.073-.502c.579-1.239 1.627-1.973 3.054-2.151L4.108 5.793a.592.592 0 111.163-.227l1.091 5.578h9.423l1.807-6.771H4.29A4.354 4.354 0 01.007.68.591.591 0 111.178.505a3.165 3.165 0 003.115 2.682h14.07a.593.593 0 01.573.745zM5.527 12.831h.006A2.065 2.065 0 017.602 14.9a2.066 2.066 0 01-1.277 1.917 2.067 2.067 0 01-2.26-.446 2.066 2.066 0 01-.453-2.26 2.068 2.068 0 011.915-1.28zm-.626 2.702a.89.89 0 10.632-1.518h-.004a.887.887 0 00-.628 1.518zm9.017-2.702c.546-.04 1.08.218 1.468.603.392.393.607.912.607 1.466a2.065 2.065 0 01-1.274 1.917 2.064 2.064 0 01-2.262-.446 2.065 2.065 0 01-.452-2.26 2.064 2.064 0 011.913-1.28zm-.625 2.702a.889.889 0 10.631-1.518h-.001c-.331.032-.685.215-.823.548a.885.885 0 00.193.97z" class="aacls-1"/></svg><svg preserveAspectRatio="xMidYMid" viewBox="0 0 20.03 20.031" id="dots" xmlns="http://www.w3.org/2000/svg"><path d="M17.883 12.156a2.145 2.145 0 01-2.146-2.147c0-1.186.959-2.145 2.146-2.145 1.187 0 2.146.959 2.146 2.145a2.145 2.145 0 01-2.146 2.147zm0-7.869a2.144 2.144 0 01-2.146-2.146c0-1.187.959-2.146 2.146-2.146 1.187 0 2.146.959 2.146 2.146a2.144 2.144 0 01-2.146 2.146zm-7.869 15.737a2.145 2.145 0 112.146-2.146 2.144 2.144 0 01-2.146 2.146zm0-7.868a2.145 2.145 0 110-4.292c1.187 0 2.146.959 2.146 2.145a2.145 2.145 0 01-2.146 2.147zm0-7.869a2.144 2.144 0 01-2.146-2.146c0-1.187.96-2.146 2.146-2.146 1.187 0 2.146.959 2.146 2.146a2.144 2.144 0 01-2.146 2.146zM2.146 20.024A2.144 2.144 0 010 17.878c0-1.186.959-2.146 2.146-2.146 1.187 0 2.146.96 2.146 2.146a2.144 2.144 0 01-2.146 2.146zm0-7.868A2.145 2.145 0 010 10.009c0-1.186.959-2.145 2.146-2.145 1.187 0 2.146.959 2.146 2.145a2.145 2.145 0 01-2.146 2.147zm0-7.869A2.144 2.144 0 010 2.141C0 .954.959-.005 2.146-.005c1.187 0 2.146.959 2.146 2.146a2.144 2.144 0 01-2.146 2.146zm15.737 11.445c1.187 0 2.146.96 2.146 2.146a2.144 2.144 0 01-2.146 2.146 2.144 2.144 0 01-2.146-2.146c0-1.186.959-2.146 2.146-2.146z" fill="#fff" fill-rule="evenodd"/></svg><svg preserveAspectRatio="xMidYMid" viewBox="0 0 17.87 15.531" id="heart" xmlns="http://www.w3.org/2000/svg"><path d="M8.943 15.526a.698.698 0 01-.28-.057C8.31 15.32.013 11.72.013 4.71.104 2.06 2.22.002 4.831.002c1.743 0 3.266.918 4.112 2.31a4.796 4.796 0 014.112-2.31c2.609 0 4.725 2.058 4.817 4.684 0 7.034-8.297 10.634-8.649 10.783a.701.701 0 01-.28.057zM4.831 1.387c-1.847 0-3.343 1.47-3.408 3.347 0 5.407 6.125 8.662 7.52 9.334 1.395-.672 7.52-3.93 7.52-9.358-.065-1.853-1.563-3.323-3.408-3.323s-3.342 1.47-3.408 3.347a.699.699 0 01-.704.669.7.7 0 01-.705-.669c-.064-1.877-1.561-3.347-3.407-3.347z" class="accls-1"/></svg><svg preserveAspectRatio="xMidYMid" viewBox="0 0 48.03 63.94" id="icon-about-award" xmlns="http://www.w3.org/2000/svg"><path d="M47.521 22.442a3.45 3.45 0 01.001 3.575l-1.314 2.174c-.173.287-.24.627-.188.958l.391 2.513a3.433 3.433 0 01-1.359 3.309l-2.036 1.495c-.27.198-.461.486-.539.813l-.593 2.473a3.403 3.403 0 01-2.506 2.529l-.984.241 6.927 15.6c.147.331.107.717-.107 1.009a.993.993 0 01-.922.404l-5.572-.672-3.209 4.645a.996.996 0 01-.912.427.999.999 0 01-.818-.591L26.701 47.4l-.929.572a3.371 3.371 0 01-3.541 0l-.896-.552-7.071 15.924a1.002 1.002 0 01-.912.596.994.994 0 01-.818-.432l-3.21-4.645-5.571.672a.994.994 0 01-.923-.404 1.016 1.016 0 01-.107-1.009l6.924-15.591-1.023-.25a3.405 3.405 0 01-2.505-2.53l-.593-2.473a1.42 1.42 0 00-.539-.813l-2.036-1.494a3.437 3.437 0 01-1.359-3.311l.392-2.511a1.429 1.429 0 00-.188-.958L.482 26.017a3.448 3.448 0 010-3.575l1.314-2.175c.173-.286.24-.626.188-.958l-.391-2.512a3.432 3.432 0 011.359-3.31l2.036-1.495c.269-.197.46-.486.539-.812l.593-2.474a3.403 3.403 0 012.505-2.529l2.45-.599c.324-.079.61-.272.806-.543l1.48-2.056a3.372 3.372 0 013.279-1.371l2.488.395c.329.052.666-.016.949-.19L22.231.487a3.36 3.36 0 013.541 0l2.155 1.326c.283.175.621.242.949.19l2.488-.395a3.372 3.372 0 013.279 1.372l1.481 2.055c.196.272.482.465.805.544l2.45.599a3.403 3.403 0 012.506 2.529l.593 2.474c.078.326.269.614.538.812l2.036 1.495a3.432 3.432 0 011.359 3.31l-.391 2.511c-.052.332.015.672.188.958l1.313 2.175zM34.882 60.895l2.543-3.681a.994.994 0 01.938-.425l4.415.533-6.319-14.229c-.128.09-.243.201-.336.331l-1.481 2.055c-.132.184-.281.35-.442.501l3.333 7.506a1.012 1.012 0 01-.502 1.332 1 1 0 01-1.32-.508L32.4 46.854a3.402 3.402 0 01-1.037-.003l-2.487-.395a1.395 1.395 0 00-.408-.004l6.414 14.443zM5.267 57.322l4.415-.533a.994.994 0 01.937.425l2.544 3.681 6.411-14.437a1.368 1.368 0 00-.447-.003l-2.488.395a3.37 3.37 0 01-.997.01l-3.309 7.45a.998.998 0 01-.912.596 1.01 1.01 0 01-.91-1.42l3.32-7.478a3.423 3.423 0 01-.471-.53l-1.481-2.055a1.405 1.405 0 00-.304-.307L5.267 57.322zm40.549-33.831l-1.313-2.174a3.467 3.467 0 01-.456-2.321l.392-2.511a1.419 1.419 0 00-.561-1.367l-2.036-1.495a3.433 3.433 0 01-1.305-1.969l-.593-2.473a1.404 1.404 0 00-1.034-1.044l-2.45-.599a3.403 3.403 0 01-1.951-1.317l-1.481-2.056a1.392 1.392 0 00-1.353-.566l-2.489.395a3.374 3.374 0 01-2.299-.46l-2.155-1.326a1.384 1.384 0 00-1.461 0l-2.154 1.326a3.382 3.382 0 01-2.3.46l-2.487-.395a1.391 1.391 0 00-1.354.566L13.495 6.22a3.404 3.404 0 01-1.95 1.318l-2.45.598c-.514.126-.91.525-1.035 1.044l-.593 2.473a3.44 3.44 0 01-1.304 1.969l-2.037 1.495a1.42 1.42 0 00-.561 1.367l.392 2.512a3.463 3.463 0 01-.456 2.32l-1.314 2.175a1.423 1.423 0 000 1.476l1.314 2.174c.419.694.58 1.519.455 2.321l-.391 2.512a1.416 1.416 0 00.561 1.366l2.035 1.495a3.436 3.436 0 011.305 1.969l.593 2.473c.125.519.521.919 1.035 1.044l2.45.599a3.41 3.41 0 011.95 1.317l1.481 2.056c.312.432.83.649 1.354.566l2.488-.395a3.377 3.377 0 012.299.46l2.155 1.326c.45.278 1.011.278 1.462 0l2.154-1.326a3.38 3.38 0 012.299-.46l2.488.395a1.388 1.388 0 001.353-.566l1.481-2.055a3.4 3.4 0 011.951-1.317l2.45-.599c.513-.125.91-.525 1.034-1.044l.593-2.473c.19-.791.653-1.49 1.305-1.969l2.036-1.495c.429-.315.644-.838.561-1.366l-.391-2.512a3.466 3.466 0 01.456-2.321l1.313-2.175a1.423 1.423 0 000-1.476zM36.71 37.085a17.94 17.94 0 01-12.771 5.33c-3.887 0-7.787-1.26-11.047-3.82a1.015 1.015 0 01-.174-1.415.992.992 0 011.401-.176c6.363 4.999 15.468 4.421 21.179-1.344a16.277 16.277 0 002.982-18.75 1.01 1.01 0 01.441-1.353.993.993 0 011.341.445 18.302 18.302 0 01-3.352 21.083zm.025-23.247a.995.995 0 01-.749-.34 16.525 16.525 0 00-1.42-1.433 1.014 1.014 0 01-.086-1.423.991.991 0 011.409-.088 18.287 18.287 0 011.594 1.609 1.015 1.015 0 01-.087 1.423.991.991 0 01-.661.252zm-1.05 7.255c.22.684.032 1.412-.491 1.9l-4.441 4.146 1.179 5.991a1.812 1.812 0 01-.71 1.828 1.77 1.77 0 01-1.941.116l-5.279-2.983-5.28 2.983a1.792 1.792 0 01-.883.235c-.371 0-.74-.118-1.058-.351a1.812 1.812 0 01-.71-1.828l1.179-5.991-4.441-4.146a1.815 1.815 0 01-.491-1.9 1.792 1.792 0 011.503-1.246l6.008-.719 2.534-5.546a1.787 1.787 0 011.639-1.058c.712 0 1.34.406 1.638 1.058l2.534 5.546 6.008.719a1.792 1.792 0 011.503 1.246zm-8.301-.03a.997.997 0 01-.789-.578l-2.593-5.675-2.593 5.675a1 1 0 01-.79.578l-6.148.736 4.545 4.243c.255.239.37.593.302.937l-1.207 6.13 5.403-3.053a.994.994 0 01.975 0l5.403 3.053-1.207-6.13a1.018 1.018 0 01.302-.937l4.545-4.243-6.148-.736zm3.805-11.312c-6.198-3.161-13.663-1.952-18.577 3.008-5.711 5.765-6.283 14.957-1.331 21.38.339.439.26 1.073-.175 1.415a.992.992 0 01-1.401-.177C4.136 28.153 4.778 17.816 11.2 11.334c5.525-5.578 13.92-6.937 20.889-3.382.493.251.69.857.441 1.354a.993.993 0 01-1.341.445z" fill="#243f4d" fill-rule="evenodd"/></svg><svg preserveAspectRatio="xMidYMid" viewBox="0 0 64 40" id="icon-about-car" xmlns="http://www.w3.org/2000/svg"><path d="M41.62 27.459a.996.996 0 011.002.99c0 .547-.449.99-1.002.99H26.655a.996.996 0 01-1.002-.99c0-.547.449-.99 1.002-.99H41.62zM24.518 20.99c-.257 0-.513-.097-.709-.29l-5.344-5.281a.98.98 0 010-1.4 1.012 1.012 0 011.417 0l4.636 4.58 8.911-8.804a1.01 1.01 0 011.417 0 .98.98 0 010 1.4l-9.62 9.505c-.195.193-.452.29-.708.29zm38.48 12.673h-3.276l.002.066c0 3.458-2.847 6.27-6.346 6.27-3.5 0-6.347-2.812-6.347-6.27l.002-.066H24.449l.002.066c0 3.458-2.847 6.27-6.347 6.27-3.499 0-6.346-2.812-6.346-6.27l.002-.066H6.347c-1.142 0-2.071-.918-2.071-2.046v-2.179H1.002A.996.996 0 010 28.448c0-.547.449-.99 1.002-.99h9.62a.996.996 0 011.002.99c0 .547-.449.99-1.002.99H6.28v2.179c0 .036.03.066.066.066h5.761a6.35 6.35 0 015.997-4.225 6.351 6.351 0 015.998 4.225h20.791v-7.459c0-.547.449-.99 1.002-.99a.996.996 0 011.002.99v7.459h.483a6.35 6.35 0 015.998-4.224 6.349 6.349 0 015.997 4.224h2.621v-4.356H60.86c-1.732 0-3.14-1.392-3.14-3.103v-2.112c0-.547.449-.99 1.002-.99h3.116a3.274 3.274 0 00-3.114-2.244H46.898V20c0 .547-.449.99-1.003.99a.996.996 0 01-1.002-.99V2.046a.066.066 0 00-.066-.066H6.346a.066.066 0 00-.066.066V20c0 .547-.449.99-1.002.99A.996.996 0 014.275 20V2.046C4.275.918 5.204 0 6.346 0h38.481c1.142 0 2.071.918 2.071 2.046v2.178h7.549c2.32 0 4.208 1.866 4.208 4.159v1.056c0 .476-.34.873-.793.968l1.658 6.55c2.533.381 4.48 2.547 4.48 5.155v10.561c0 .547-.449.99-1.002.99zm-44.894-4.224c-2.394 0-4.342 1.924-4.342 4.29s1.948 4.291 4.342 4.291c2.395 0 4.343-1.925 4.343-4.291 0-2.366-1.948-4.29-4.343-4.29zm35.274 0c-2.395 0-4.343 1.924-4.343 4.29s1.948 4.291 4.343 4.291c2.394 0 4.342-1.925 4.342-4.291 0-2.366-1.948-4.29-4.342-4.29zm3.273-21.056c0-1.201-.989-2.179-2.204-2.179h-7.549v2.245h9.753v-.066zm-.849 2.046h-8.904v6.469h10.541l-1.637-6.469zm6.194 12.673h-2.272v1.122c0 .619.51 1.122 1.136 1.122h1.136v-2.244zm-8.618 12.674c-1.142 0-2.071-.918-2.071-2.047 0-1.128.929-2.046 2.071-2.046 1.142 0 2.071.918 2.071 2.046 0 1.129-.929 2.047-2.071 2.047zm-35.274 0c-1.142 0-2.071-.918-2.071-2.047 0-1.128.929-2.046 2.071-2.046 1.142 0 2.071.918 2.071 2.046 0 1.129-.929 2.047-2.071 2.047zm-1.135-11.552c0 .547-.449.99-1.002.99H3.14a.996.996 0 01-1.002-.99c0-.547.448-.99 1.002-.99h12.827a.996.996 0 011.002.99z" fill="#243f4d" fill-rule="evenodd"/></svg><svg preserveAspectRatio="xMidYMid" viewBox="0 0 67 64" id="icon-about-clock" xmlns="http://www.w3.org/2000/svg"><path d="M58.493 37.654c-.185 0-.371-.046-.542-.144l-2.005-1.145a1.068 1.068 0 01-.397-1.467c.3-.513.963-.689 1.482-.393l2.005 1.146c.519.296.697.953.397 1.466a1.085 1.085 0 01-.94.537zm-1.461-19.615a1.087 1.087 0 01-.542.144c-.375 0-.74-.192-.941-.537a1.068 1.068 0 01.397-1.467l2.005-1.145a1.09 1.09 0 011.482.393c.3.513.122 1.17-.397 1.467l-2.004 1.145zm5.338 8.233a1.08 1.08 0 01-1.085 1.074H58.97a1.08 1.08 0 01-1.085-1.074 1.08 1.08 0 011.085-1.074h2.315a1.08 1.08 0 011.085 1.074zm-3.411 18.837l2.113-.418a1.085 1.085 0 011.277.842 1.074 1.074 0 01-.851 1.264l-5.787 1.145a1.099 1.099 0 01-.981-.293 1.068 1.068 0 01-.296-.97l1.157-5.727a1.085 1.085 0 011.277-.843c.588.116.969.682.851 1.264l-.483 2.393c4.845-4.549 7.594-10.831 7.594-17.494 0-13.303-10.937-24.125-24.379-24.125-7.923 0-15.38 3.833-19.948 10.252a1.093 1.093 0 01-1.512.26 1.066 1.066 0 01-.262-1.496C23.702 4.173 31.823-.001 40.45-.001 55.09-.001 67 11.786 67 26.272c0 7.151-2.906 13.901-8.041 18.837zM24.411 18.183c-.184 0-.371-.046-.542-.144l-2.004-1.146a1.066 1.066 0 01-.397-1.466 1.09 1.09 0 011.482-.393l2.005 1.145c.519.296.696.953.397 1.467a1.088 1.088 0 01-.941.537zm.544 18.182l-2.005 1.146a1.087 1.087 0 01-1.482-.393 1.067 1.067 0 01.397-1.467l2.004-1.146a1.093 1.093 0 011.483.393 1.068 1.068 0 01-.397 1.467zm6.778 4.848c.519.297.697.953.397 1.467l-1.157 1.984a1.088 1.088 0 01-1.482.393 1.069 1.069 0 01-.398-1.467l1.158-1.984c.3-.513.963-.689 1.482-.393zm-.541-29.738c-.375 0-.74-.192-.941-.537l-1.157-1.984c-.3-.513-.122-1.17.397-1.466a1.09 1.09 0 011.482.392l1.157 1.984c.3.514.122 1.171-.397 1.467a1.084 1.084 0 01-.541.144zm8.029 11.034c0 3.627-2.959 5.225-5.337 6.509-1.927 1.04-3.263 1.822-3.735 3.053h7.987c.599 0 1.085.48 1.085 1.074a1.08 1.08 0 01-1.086 1.073h-9.259a1.08 1.08 0 01-1.086-1.073c0-3.283 2.685-4.733 5.054-6.012 2.617-1.414 4.206-2.43 4.206-4.624 0-1.754-1.59-3.181-3.544-3.181-1.955 0-3.545 1.427-3.545 3.181a1.08 1.08 0 01-1.085 1.074 1.08 1.08 0 01-1.085-1.074c0-2.938 2.563-5.329 5.715-5.329 3.151 0 5.715 2.391 5.715 5.329zM50.65 41.606l1.157 1.984c.3.514.122 1.17-.397 1.467a1.088 1.088 0 01-1.482-.393l-1.157-1.984c-.3-.514-.122-1.17.397-1.467a1.092 1.092 0 011.482.393zM39.365 7.946V5.655a1.08 1.08 0 011.085-1.074c.6 0 1.085.481 1.086 1.074v2.291A1.08 1.08 0 0140.45 9.02a1.08 1.08 0 01-1.085-1.074zm10.344 3.529c-.184 0-.37-.046-.541-.144a1.067 1.067 0 01-.397-1.467l1.157-1.984c.3-.513.963-.689 1.482-.393.519.297.697.954.398 1.467l-1.158 1.984a1.088 1.088 0 01-.941.537zm3.401 17.088a1.08 1.08 0 01-1.085 1.074h-1.23v3.508c0 .593-.486 1.073-1.085 1.073a1.08 1.08 0 01-1.085-1.073v-3.508h-7.017c-.329 0-.641-.148-.847-.402a1.067 1.067 0 01-.213-.905l2.315-10.309c.13-.578.71-.944 1.295-.815.585.128.954.703.824 1.281l-2.021 9.002h5.664v-9.235a1.08 1.08 0 011.085-1.074c.6 0 1.085.481 1.085 1.074v9.235h1.23a1.08 1.08 0 011.085 1.074zm-33.418-1.959l-4.07 4.026c-.833.826-.937 2.147-.241 3.073a73.665 73.665 0 007.078 8.082 73.959 73.959 0 008.167 7.004c.937.689 2.271.586 3.105-.239l4.069-4.027a4.608 4.608 0 015.457-.741l11.588 6.45a4.355 4.355 0 012.212 3.229c.2 1.443-.294 2.872-1.354 3.921l-4.292 4.247C49.815 63.208 47.555 64 44.778 64c-2.5 0-5.419-.641-8.652-1.927-6.528-2.596-13.671-7.536-20.112-13.91C9.573 41.789 4.581 34.721 1.957 28.26c-2.742-6.753-2.583-12.125.449-15.125l4.292-4.247a4.697 4.697 0 013.962-1.339 4.395 4.395 0 013.263 2.188l6.518 11.467a4.49 4.49 0 01-.749 5.4zm-1.142-4.347L12.032 10.79a2.24 2.24 0 00-1.668-1.113 2.547 2.547 0 00-2.131.73l-.75.741 1.344 2.44c.287.52.093 1.172-.433 1.457a1.09 1.09 0 01-1.472-.429l-1.039-1.885-1.942 1.922c-2.344 2.32-2.333 6.988.03 12.807 2.517 6.198 7.339 13.011 13.577 19.185 6.239 6.173 13.124 10.945 19.387 13.435 5.88 2.339 10.597 2.35 12.941.03l1.943-1.922-9.319-5.03a1.068 1.068 0 01-.433-1.457c.287-.52.946-.712 1.472-.428l9.879 5.332.75-.742c.576-.57.845-1.339.738-2.11a2.221 2.221 0 00-1.125-1.65l-11.588-6.45a2.414 2.414 0 00-2.858.389l-1.937 1.916 1.904 1.028c.526.283.72.936.433 1.456a1.09 1.09 0 01-1.472.429l-2.464-1.33-.533.528c-1.59 1.572-4.14 1.763-5.934.444a76.005 76.005 0 01-8.407-7.21 75.699 75.699 0 01-7.286-8.319c-1.333-1.775-1.14-4.3.449-5.872l.533-.528-5.387-9.773a1.068 1.068 0 01.433-1.457 1.09 1.09 0 011.472.429l5.082 9.219 1.936-1.917a2.352 2.352 0 00.393-2.828z" fill="#243f4d" fill-rule="evenodd"/></svg><svg preserveAspectRatio="xMidYMid" viewBox="0 0 64 57" id="icon-about-monitor" xmlns="http://www.w3.org/2000/svg"><path d="M60.635 47.856H38.943l.877 7h3.634a1.073 1.073 0 110 2.144H20.546a1.073 1.073 0 110-2.144h3.633l.877-7H3.365A3.364 3.364 0 010 44.499V3.357A3.365 3.365 0 013.365 0h57.27A3.365 3.365 0 0164 3.357v41.142a3.364 3.364 0 01-3.365 3.357zm-22.979 7.001l-.877-7h-9.558l-.877 7h11.312zm24.196-51.5c0-.67-.546-1.215-1.217-1.215H3.365c-.672 0-1.217.545-1.217 1.215v41.142c0 .67.545 1.215 1.217 1.215h57.27c.671 0 1.217-.545 1.217-1.215V3.357zm-3.508 38.785H13.673a1.072 1.072 0 01-1.074-1.071c0-.592.481-1.071 1.074-1.071h43.598V6.714h-2.363c-.593 0-1.074-.48-1.074-1.071 0-.592.481-1.072 1.074-1.072h3.436c.593 0 1.074.48 1.074 1.072v35.428c0 .592-.481 1.071-1.074 1.071zM52.546 20.5v16c0 .591-.481 1.071-1.074 1.071-.593 0-1.074-.48-1.074-1.071v-16a1.073 1.073 0 012.148 0zM39.564 34.214V36.5c0 .591-.48 1.071-1.073 1.071-.594 0-1.074-.48-1.074-1.071v-2.286a1.073 1.073 0 012.147 0zm-12.981-6.857V36.5c0 .591-.481 1.071-1.074 1.071-.593 0-1.074-.48-1.074-1.071v-9.143a1.073 1.073 0 012.148 0zm28.253-13.714a3.364 3.364 0 01-4.772 3.047l-8.604 9.09c.252.47.395 1.007.395 1.577a3.364 3.364 0 11-6.685-.542l-7.348-3.881a3.354 3.354 0 01-3.852.549l-8.406 8.141c.21.439.329.929.329 1.447a3.365 3.365 0 01-6.73 0 3.365 3.365 0 014.904-2.984l8.406-8.141a3.338 3.338 0 01-.328-1.446 3.365 3.365 0 016.729 0c0 .184-.016.365-.045.541l7.348 3.882a3.355 3.355 0 013.722-.614l8.603-9.09a3.341 3.341 0 01-.395-1.576 3.365 3.365 0 016.729 0zM12.528 31.857c-.671 0-1.217.544-1.217 1.214a1.217 1.217 0 002.434 0c0-.67-.546-1.214-1.217-1.214zm12.981-12.571c-.671 0-1.217.544-1.217 1.214a1.217 1.217 0 002.434 0c0-.67-.546-1.214-1.217-1.214zm12.982 6.856c-.672 0-1.217.545-1.217 1.215a1.217 1.217 0 002.434 0c0-.67-.546-1.215-1.217-1.215zm12.981-13.714c-.671 0-1.217.545-1.217 1.215a1.217 1.217 0 002.434 0c0-.67-.546-1.215-1.217-1.215zm-1.145-5.714H6.729V40h2.363c.593 0 1.074.48 1.074 1.071 0 .592-.481 1.071-1.074 1.071H5.655a1.071 1.071 0 01-1.073-1.071V5.643c0-.592.48-1.072 1.073-1.072h44.672a1.072 1.072 0 110 2.143z" fill="#243f4d" fill-rule="evenodd"/></svg><svg preserveAspectRatio="xMidYMid" viewBox="0 0 10 5" id="icon-angle-down" xmlns="http://www.w3.org/2000/svg"><path d="M4.983 4.999a.756.756 0 01-.496-.179L.173 1.048a.56.56 0 010-.869.779.779 0 01.994 0l3.816 3.337L8.8.18a.776.776 0 01.994 0 .561.561 0 010 .868L5.48 4.82a.752.752 0 01-.497.179z" fill="#8d8d8d" fill-rule="evenodd"/></svg><svg preserveAspectRatio="xMidYMid" viewBox="0 0 22 9" id="icon-arr-right" xmlns="http://www.w3.org/2000/svg"><path d="M.296 5.472H.288h16.956l-.1 2.857a.284.284 0 00-.084.205c0 .077.029.151.084.205l.172.172a.285.285 0 00.407.002l4.193-4.211a.292.292 0 000-.409L17.723.08a.29.29 0 00-.407 0l-.172.173a.287.287 0 000 .405l.113 2.865H.292A.297.297 0 000 3.818v1.37c0 .159.137.284.296.284z" class="aicls-1"/></svg><svg preserveAspectRatio="xMidYMid" viewBox="0 0 22 9" id="icon-arrow-left" xmlns="http://www.w3.org/2000/svg"><path d="M21.704 3.526l.008.003H4.756l.1-2.859a.29.29 0 000-.409L4.684.087a.29.29 0 00-.408 0L.084 4.298a.292.292 0 000 .409L4.276 8.92a.293.293 0 00.408 0l.172-.174a.287.287 0 00.084-.204.278.278 0 00-.084-.2l-.113-2.864h16.965A.3.3 0 0022 5.181V3.812a.293.293 0 00-.296-.286z" fill="#a3bbc8" fill-rule="evenodd"/></svg><svg preserveAspectRatio="xMidYMid" viewBox="0 0 22 9" id="icon-arrow-right" xmlns="http://www.w3.org/2000/svg"><path d="M.296 5.473l-.008-.002h16.956l-.1 2.858a.289.289 0 00-.084.205c0 .078.029.15.084.205l.172.173a.285.285 0 00.204.084.288.288 0 00.204-.083l4.192-4.212a.29.29 0 000-.408L17.724.08a.288.288 0 00-.204-.083.288.288 0 00-.204.083l-.172.174a.28.28 0 00-.084.204.27.27 0 00.084.199l.113 2.865H.292A.298.298 0 000 3.818v1.37c0 .159.137.285.296.285z" fill="#a3bbc8" fill-rule="evenodd"/></svg><svg viewBox="0 0 12 13" id="icon-blog-arrow-right" xmlns="http://www.w3.org/2000/svg"><path d="M5.102 1.7l.597-.563a.656.656 0 01.906 0l5.207 4.933c.25.239.25.621 0 .86l-5.207 4.933a.656.656 0 01-.906 0l-.597-.562a.59.59 0 01.011-.871L8.34 7.516H.645c-.36 0-.645-.274-.645-.61v-.812c0-.336.285-.61.645-.61H8.34L5.113 2.57a.584.584 0 01-.011-.87zm0 0"/></svg><svg aria-hidden="true" data-prefix="fas" data-icon="calendar-alt" class="amsvg-inline--fa amfa-calendar-alt amfa-w-14" viewBox="0 0 448 512" id="icon-calendar" xmlns="http://www.w3.org/2000/svg"><path fill="#222933" d="M0 464c0 26.5 21.5 48 48 48h352c26.5 0 48-21.5 48-48V192H0v272zm320-196c0-6.6 5.4-12 12-12h40c6.6 0 12 5.4 12 12v40c0 6.6-5.4 12-12 12h-40c-6.6 0-12-5.4-12-12v-40zm0 128c0-6.6 5.4-12 12-12h40c6.6 0 12 5.4 12 12v40c0 6.6-5.4 12-12 12h-40c-6.6 0-12-5.4-12-12v-40zM192 268c0-6.6 5.4-12 12-12h40c6.6 0 12 5.4 12 12v40c0 6.6-5.4 12-12 12h-40c-6.6 0-12-5.4-12-12v-40zm0 128c0-6.6 5.4-12 12-12h40c6.6 0 12 5.4 12 12v40c0 6.6-5.4 12-12 12h-40c-6.6 0-12-5.4-12-12v-40zM64 268c0-6.6 5.4-12 12-12h40c6.6 0 12 5.4 12 12v40c0 6.6-5.4 12-12 12H76c-6.6 0-12-5.4-12-12v-40zm0 128c0-6.6 5.4-12 12-12h40c6.6 0 12 5.4 12 12v40c0 6.6-5.4 12-12 12H76c-6.6 0-12-5.4-12-12v-40zM400 64h-48V16c0-8.8-7.2-16-16-16h-32c-8.8 0-16 7.2-16 16v48H160V16c0-8.8-7.2-16-16-16h-32c-8.8 0-16 7.2-16 16v48H48C21.5 64 0 85.5 0 112v48h448v-48c0-26.5-21.5-48-48-48z"/></svg><svg preserveAspectRatio="xMidYMid" viewBox="0 0 53.56 52.25" id="icon-card" xmlns="http://www.w3.org/2000/svg"><path d="M40.132 25.83a.836.836 0 01-.836-.836v-2.041a3.1 3.1 0 01-2.257-2.979 3.098 3.098 0 013.093-3.095 3.097 3.097 0 013.092 3.095 3.1 3.1 0 01-2.257 2.979v2.041a.835.835 0 01-.835.836zm1.42-5.856c0-.783-.637-1.422-1.42-1.422a1.423 1.423 0 000 2.844c.783 0 1.42-.637 1.42-1.422zm6.732 2.353c.462 0 .836.374.836.836v3.186a3.046 3.046 0 01-3.042 3.044H34.184a3.045 3.045 0 01-3.041-3.044V15.602a3.05 3.05 0 012.393-2.975V6.611c0-3.641 2.959-6.603 6.595-6.603 3.637 0 6.595 2.962 6.595 6.603v6.016a3.048 3.048 0 012.394 2.974v4.773a.836.836 0 11-1.672 0v-4.773c0-.755-.614-1.371-1.37-1.371H34.184c-.755 0-1.369.616-1.369 1.371v10.748c0 .756.614 1.371 1.369 1.371h11.894c.756 0 1.37-.615 1.37-1.371v-3.186c0-.462.375-.836.836-.836zm-13.076-9.77h9.846V6.611a4.93 4.93 0 00-4.923-4.929 4.93 4.93 0 00-4.923 4.929v5.946zM5.461 34.818h8.185a.836.836 0 01-.001 1.673H5.461a.836.836 0 110-1.673zm0-3.992h14.271a.837.837 0 010 1.674H5.461a.836.836 0 010-1.674zm23.509-9.881H14.754a.837.837 0 010-1.674H28.97a.836.836 0 010 1.674zm0 7.142H1.679v11.92c0 1.193.971 2.165 2.163 2.165h39.335a2.167 2.167 0 002.162-2.165v-8.266a.837.837 0 011.672 0v8.266a3.84 3.84 0 01-3.834 3.837H3.842a3.84 3.84 0 01-3.834-3.837v-23.62a3.841 3.841 0 013.834-3.839H28.97a.836.836 0 010 1.673H3.842a2.168 2.168 0 00-2.163 2.166v2.884h9.869a.837.837 0 010 1.673H1.679v5.47H28.97a.836.836 0 010 1.673z" fill-rule="evenodd" fill="#a3bbc8"/><circle cx="43.75" cy="42.45" r="9.81" opacity=".34" fill="#a3bbc8"/></svg><svg preserveAspectRatio="xMidYMid" viewBox="0 0 37 44" id="icon-contact-dots" xmlns="http://www.w3.org/2000/svg"><path fill="#a3bbc8" d="M31.941 21.338c-2.79 0-5.06-2.24-5.06-4.995 0-2.754 2.27-4.995 5.06-4.995 2.789 0 5.059 2.241 5.059 4.995 0 2.755-2.27 4.995-5.059 4.995zm0-8.04c-1.701 0-3.084 1.366-3.084 3.045 0 1.68 1.383 3.045 3.084 3.045 1.7 0 3.084-1.365 3.084-3.045 0-1.679-1.384-3.045-3.084-3.045zm0-3.296c-2.79 0-5.06-2.241-5.06-4.995 0-2.755 2.27-4.995 5.06-4.995C34.73.012 37 2.252 37 5.007c0 2.754-2.27 4.995-5.059 4.995zm0-8.041c-1.701 0-3.084 1.367-3.084 3.046 0 1.679 1.383 3.046 3.084 3.046 1.7 0 3.084-1.367 3.084-3.046 0-1.679-1.384-3.046-3.084-3.046zm-13.442 42.05c-2.789 0-5.059-2.241-5.059-4.995s2.27-4.995 5.059-4.995c2.79 0 5.06 2.241 5.06 4.995 0 2.755-2.27 4.995-5.06 4.995zm0-8.04c-1.7 0-3.084 1.366-3.084 3.045 0 1.679 1.384 3.045 3.084 3.045 1.701 0 3.086-1.366 3.086-3.045 0-1.679-1.385-3.045-3.086-3.045zm0-3.296c-2.789 0-5.059-2.241-5.059-4.995 0-2.755 2.27-4.995 5.059-4.995 2.79 0 5.06 2.24 5.06 4.995 0 2.754-2.27 4.995-5.06 4.995zm0-8.041c-1.7 0-3.084 1.367-3.084 3.046 0 1.679 1.384 3.046 3.084 3.046 1.701 0 3.086-1.367 3.086-3.046 0-1.679-1.385-3.046-3.086-3.046zm0-3.296c-2.789 0-5.059-2.24-5.059-4.995 0-2.754 2.27-4.995 5.059-4.995 2.79 0 5.06 2.241 5.06 4.995 0 2.755-2.27 4.995-5.06 4.995zm0-8.04c-1.7 0-3.084 1.366-3.084 3.045 0 1.68 1.384 3.045 3.084 3.045 1.701 0 3.086-1.365 3.086-3.045 0-1.679-1.385-3.045-3.086-3.045zm0-3.296c-2.789 0-5.059-2.241-5.059-4.995 0-2.755 2.27-4.995 5.059-4.995 2.79 0 5.06 2.24 5.06 4.995 0 2.754-2.27 4.995-5.06 4.995zm0-8.041c-1.7 0-3.084 1.367-3.084 3.046 0 1.679 1.384 3.046 3.084 3.046 1.701 0 3.086-1.367 3.086-3.046 0-1.679-1.385-3.046-3.086-3.046zM5.059 32.675C2.269 32.675 0 30.434 0 27.68c0-2.755 2.269-4.995 5.059-4.995s5.059 2.24 5.059 4.995c0 2.754-2.269 4.995-5.059 4.995zm0-8.041c-1.701 0-3.085 1.367-3.085 3.046 0 1.679 1.384 3.046 3.085 3.046s3.084-1.367 3.084-3.046c0-1.679-1.383-3.046-3.084-3.046zm0-3.296c-2.79 0-5.059-2.24-5.059-4.995 0-2.754 2.269-4.995 5.059-4.995s5.059 2.241 5.059 4.995c0 2.755-2.269 4.995-5.059 4.995zm0-8.04c-1.701 0-3.085 1.366-3.085 3.045 0 1.68 1.384 3.045 3.085 3.045s3.084-1.365 3.084-3.045c0-1.679-1.383-3.045-3.084-3.045zm0-3.296C2.269 10.002 0 7.761 0 5.007 0 2.252 2.269.012 5.059.012s5.059 2.24 5.059 4.995c0 2.754-2.269 4.995-5.059 4.995zm0-8.041c-1.701 0-3.085 1.367-3.085 3.046 0 1.679 1.384 3.046 3.085 3.046s3.084-1.367 3.084-3.046c0-1.679-1.383-3.046-3.084-3.046zm26.882 20.724c2.789 0 5.059 2.24 5.059 4.995 0 2.754-2.27 4.995-5.059 4.995-2.79 0-5.06-2.241-5.06-4.995 0-2.755 2.27-4.995 5.06-4.995zm0 8.041c1.7 0 3.084-1.367 3.084-3.046 0-1.679-1.384-3.046-3.084-3.046-1.701 0-3.084 1.367-3.084 3.046 0 1.679 1.383 3.046 3.084 3.046z" class="aocls-1"/></svg><svg preserveAspectRatio="xMidYMid" viewBox="0 0 37 33.968" id="icon-contact-envelope" xmlns="http://www.w3.org/2000/svg"><path fill="#a3bbc8" d="M36.053 33.932L.976 33.98H.975a.957.957 0 01-.669-.272.922.922 0 01-.278-.659L0 12.848l.001-.017a.927.927 0 01.408-.754l5.322-3.616V4.623a.94.94 0 01.948-.932h6.067L17.963.145a.96.96 0 011.079.001l5.185 3.545h6.093a.94.94 0 01.947.932v3.882l5.297 3.621c.189.13.316.315.373.519a.528.528 0 01.034.184l.028 20.17a.94.94 0 01-.946.933zm-2.827-1.86L18.514 20.848 3.748 32.113l29.478-.041zM5.731 10.724l-3.118 2.12 3.118 2.121v-4.241zm-3.834 3.901l.023 16.523 11.443-8.73-11.466-7.793zM18.5 2.046l-2.421 1.645h4.828L18.5 2.046zm10.872 3.509H7.626v10.697l7.308 4.968 2.999-2.288a.959.959 0 011.148-.008l.013.008 2.977 2.272 7.301-4.993V5.555zm1.895 5.22v4.141l3.028-2.071-3.028-2.07zm3.811 3.804L23.64 22.4l11.461 8.744-.023-16.565zm-23.941.482a.94.94 0 01.948-.932h12.83a.94.94 0 01.946.932.94.94 0 01-.946.933h-12.83a.94.94 0 01-.948-.933zm13.778-3.914h-12.83a.94.94 0 01-.948-.932.94.94 0 01.948-.932h12.83a.94.94 0 01.946.932.94.94 0 01-.946.932z" class="apcls-1"/></svg><svg preserveAspectRatio="xMidYMid" viewBox="0 0 31 44" id="icon-contact-location" xmlns="http://www.w3.org/2000/svg"><path fill="#a3bbc8" d="M30.525 43.047c-.49.5-1.222.64-1.863.355l-5.665-2.51-6.594 2.917a2.216 2.216 0 01-1.806 0l-6.584-2.917-5.674 2.51a1.65 1.65 0 01-1.864-.355c-.49-.5-.613-1.23-.313-1.862l4.994-10.516a1.107 1.107 0 011.986-.022c.165.331.148.706-.014 1.009L2.785 40.8l4.32-1.914a2.227 2.227 0 011.806.001l6.583 2.916h.011l6.585-2.917a2.223 2.223 0 011.804 0l4.32 1.914-4.342-9.145a1.093 1.093 0 01.174-1.275 1.107 1.107 0 011.798.288l4.994 10.518c.299.631.177 1.36-.313 1.861zm-2.628-22.764L18.349 36.21a3.291 3.291 0 01-2.849 1.611 3.293 3.293 0 01-2.85-1.611L3.102 20.283c-.011-.02-.023-.041-.033-.062A13.883 13.883 0 011.54 13.81c.023-3.642 1.464-7.083 4.061-9.689a13.9 13.9 0 019.701-4.12 13.895 13.895 0 019.999 4.001 13.76 13.76 0 014.158 9.892c0 2.229-.514 4.357-1.528 6.327l-.034.062zM23.752 5.564a11.696 11.696 0 00-8.419-3.366C8.982 2.285 3.785 7.501 3.747 13.823a11.521 11.521 0 001.269 5.366l9.529 15.896c.292.487.765.54.955.54.19 0 .663-.053.955-.54l9.528-15.896a11.522 11.522 0 001.27-5.295c0-3.155-1.244-6.113-3.501-8.33zM15.5 18.921c-2.785 0-5.051-2.254-5.051-5.027 0-2.772 2.266-5.026 5.051-5.026s5.051 2.254 5.051 5.026c0 2.773-2.266 5.027-5.051 5.027zm0-7.857a2.842 2.842 0 00-2.845 2.83 2.842 2.842 0 002.845 2.832 2.84 2.84 0 002.844-2.832 2.84 2.84 0 00-2.844-2.83z" class="aqcls-1"/></svg><svg preserveAspectRatio="xMidYMid" viewBox="0 0 8.13 15.43" id="icon-facebook" xmlns="http://www.w3.org/2000/svg"><path d="M6.1-.005c.413 0 .828.022 1.24.04.268.011.537.05.789.077L8.11 2.597h-.198c-.272 0-.545-.003-.818-.003a17.9 17.9 0 00-.613.008c-.659.022-1.144.269-1.177 1.092-.021.592-.036 1.901-.037 1.969l1.34.002c.327 0 .647 0 .871-.002h.531c-.133.955-.255 1.87-.388 2.792H5.267l-.053 6.971h-2.89l.053-6.982H.013l.021-2.776h2.375l.002-.208c.004-.559-.003-1.119.018-1.678.008-.351.027-.713.091-1.065.16-.849.554-1.563 1.266-2.073C4.409.2 5.118.013 5.87-.003c.076-.002.153-.002.23-.002z" class="arcls-1"/></svg><svg preserveAspectRatio="xMidYMid" viewBox="0 0 18 14.81" id="icon-feedback-comment" xmlns="http://www.w3.org/2000/svg"><path d="M16.714 12.328H5.766L3.303 14.69a.441.441 0 01-.467.089.413.413 0 01-.265-.38v-2.071H1.286C.577 12.328 0 11.775 0 11.095V1.234C0 .554.577.001 1.286.001h15.428C17.423.001 18 .554 18 1.234v9.861c0 .68-.577 1.233-1.286 1.233zm.429-11.094a.42.42 0 00-.429-.411H1.286a.42.42 0 00-.429.411v9.861a.42.42 0 00.429.411H3a.42.42 0 01.428.411v1.49l1.857-1.78a.441.441 0 01.303-.121h11.126a.42.42 0 00.429-.411V1.234zm-4.8 5.547a.63.63 0 01-.643-.616.63.63 0 01.643-.617.63.63 0 01.643.617.63.63 0 01-.643.616zM9 6.781a.63.63 0 01-.643-.616A.63.63 0 019 5.548a.63.63 0 01.643.617.63.63 0 01-.643.616zm-3.586 0a.63.63 0 01-.642-.616.63.63 0 01.642-.617.63.63 0 01.643.617.63.63 0 01-.643.616z" class="ascls-1"/></svg><svg preserveAspectRatio="xMidYMid" viewBox="0 0 18 12.37" id="icon-feedback-envelope" xmlns="http://www.w3.org/2000/svg"><path d="M17.624 11.999l-.001.002-.002.002a1.307 1.307 0 01-.907.361H1.286c-.354 0-.674-.138-.907-.362l-.002-.001-.001-.002A1.21 1.21 0 010 11.127V1.228C0 .546.577-.009 1.286-.009h15.428c.709 0 1.286.555 1.286 1.237v9.899c0 .34-.144.648-.376.872zM7.536 5.695l-6.073 5.844h15.074l-6.074-5.844-.726.489c-.22.149-.479.223-.737.223-.259 0-.517-.074-.737-.223l-.727-.489zM.863 1.2c-.001.01-.006.018-.006.028v9.728l5.966-5.742L.863 1.2zm.925-.384l6.966 4.692a.445.445 0 00.492 0L16.211.816H1.788zm15.355.412c0-.01-.006-.018-.006-.028l-5.96 4.014 5.966 5.742V1.228z" class="atcls-1"/></svg><svg preserveAspectRatio="xMidYMid" viewBox="0 0 13.688 13.16" id="icon-feedback-user" xmlns="http://www.w3.org/2000/svg"><path d="M13.685 12.755a.42.42 0 01-.428.411H.424a.42.42 0 01-.428-.411c0-2.99 2.097-5.491 4.941-6.29-1.035-.617-1.732-1.711-1.732-2.966 0-1.928 1.631-3.496 3.636-3.496 2.004 0 3.636 1.568 3.636 3.496 0 1.255-.697 2.349-1.733 2.966 2.844.799 4.941 3.3 4.941 6.29zM9.621 3.499c0-1.474-1.247-2.673-2.78-2.673-1.533 0-2.781 1.199-2.781 2.673 0 1.475 1.248 2.674 2.781 2.674 1.533 0 2.78-1.199 2.78-2.674zm-2.78 3.497c-3.159 0-5.754 2.363-5.974 5.347h11.947c-.22-2.984-2.815-5.347-5.973-5.347z" fill="#436372" fill-rule="evenodd"/></svg><svg preserveAspectRatio="xMidYMid" viewBox="0 0 18.03 11.41" id="icon-google" xmlns="http://www.w3.org/2000/svg"><path d="M18.019 4.624v.055l-.011 1.442-.001.06h-1.991l-.015 1.931v.055h-1.558l.001-.055.014-1.931h-1.991l.001-.06.011-1.442v-.055h1.991l.015-1.936v-.055h1.558v.055l-.015 1.936h1.991zm-10.79 6.577a6.14 6.14 0 01-1.872.186c-1.118-.066-2.135-.417-3.036-1.081C1.159 9.451.428 8.31.12 6.9a5.155 5.155 0 01-.108-1.535 5.59 5.59 0 011.286-3.259A5.65 5.65 0 014.368.154c.313-.083.626-.132.944-.149.181-.005.363-.016.544-.016a5.356 5.356 0 012.698.74c.557.319.873.642 1.009.741-.569.559-1.116 1.108-1.674 1.656-.415-.357-.873-.685-1.667-.806a3.388 3.388 0 00-.487-.036c-1.594 0-2.93 1.153-3.285 2.663a3.15 3.15 0 00-.08 1.032 3.415 3.415 0 002.331 2.967 3.309 3.309 0 001.233.143c.599-.039 1.159-.198 1.666-.532.855-.582 1.131-1.492 1.133-1.717H5.678l.016-2.2.006-.093h5.364c.289 1.673.029 3.433-1.013 4.81-.72.949-1.679 1.547-2.822 1.844z" class="avcls-1"/></svg><svg preserveAspectRatio="xMidYMid" viewBox="0 0 15 15" id="icon-grid" xmlns="http://www.w3.org/2000/svg"><path fill="#b3b3b3" d="M0 3.75h3.75V0H0v3.75zM5.625 15h3.75v-3.75h-3.75V15zM0 15h3.75v-3.75H0V15zm0-5.625h3.75v-3.75H0v3.75zm5.625 0h3.75v-3.75h-3.75v3.75zM11.25 0v3.75H15V0h-3.75zM5.625 3.75h3.75V0h-3.75v3.75zm5.625 5.625H15v-3.75h-3.75v3.75zm0 5.625H15v-3.75h-3.75V15z" class="awcls-1"/></svg><svg preserveAspectRatio="xMidYMid" viewBox="0 0 13.63 13.66" id="icon-instagram" xmlns="http://www.w3.org/2000/svg"><path d="M13.42 10.779c-.424 1.558-1.44 2.479-3.016 2.732-.589.095-2.18.152-3.768.152-1.626 0-3.25-.06-3.796-.202-1.549-.4-2.473-1.409-2.719-2.978-.184-1.152-.203-6.505.129-7.668C.684 1.301 1.695.412 3.227.16 3.921.046 5.279.006 6.65.006c1.275 0 2.561.035 3.335.077.938.05 1.796.351 2.493 1.021.665.636 1.005 1.431 1.09 2.331.102 1.074.168 6.154-.148 7.344zM12.339 3.55c-.122-1.202-.857-1.991-2.045-2.178-.589-.089-2.006-.129-3.416-.129-1.36 0-2.714.037-3.309.101-1.191.138-1.992.873-2.183 2.058-.195 1.255-.193 5.951-.047 6.895.152.981.707 1.656 1.686 1.93.53.149 2.118.202 3.674.202 1.433 0 2.84-.045 3.368-.103 1.203-.132 1.998-.872 2.188-2.068.196-1.201.196-5.584.084-6.708zm-1.857.471a.82.82 0 01.008-1.639h.009c.451 0 .815.367.812.822a.828.828 0 01-.829.817zm-3.69 6.319a3.469 3.469 0 01-3.474-3.505A3.53 3.53 0 016.85 3.336a3.471 3.471 0 013.473 3.505 3.535 3.535 0 01-3.531 3.499zm.065-5.77h-.02a2.287 2.287 0 00-2.284 2.243A2.244 2.244 0 006.779 9.1l.02.001c1.242 0 2.264-1 2.285-2.244A2.243 2.243 0 006.857 4.57z" class="axcls-1"/></svg><svg preserveAspectRatio="xMidYMid" viewBox="0 0 20 15" id="icon-list" xmlns="http://www.w3.org/2000/svg"><path fill="#b3b3b3" d="M5.835 14.998v-4.171h14.159v4.171H5.835zm0-9.585h14.159v4.172H5.835V5.413zm0-5.413h14.159v4.172H5.835V0zM.007 10.827h4.422v4.171H.007v-4.171zm0-5.414h4.422v4.172H.007V5.413zM.007 0h4.422v4.172H.007V0z" class="aycls-1"/></svg><svg preserveAspectRatio="xMidYMid" viewBox="0 0 41.79 40.406" id="icon-medal" xmlns="http://www.w3.org/2000/svg"><path fill="#a3bbc8" d="M41.644 7.828L28.425 28.275a8.533 8.533 0 01.824 3.67c0 4.673-3.743 8.475-8.342 8.475-4.601 0-8.344-3.802-8.344-8.475 0-1.313.296-2.559.825-3.671L.169 7.828a.917.917 0 01.116-1.139L6.603.271a.888.888 0 01.631-.266h27.345c.237 0 .464.096.631.266l6.319 6.418a.92.92 0 01.115 1.139zM20.907 38.607c3.615 0 6.557-2.988 6.557-6.662 0-3.672-2.942-6.661-6.557-6.661-3.617 0-6.559 2.989-6.559 6.661 0 3.674 2.942 6.662 6.559 6.662zm.013-15.136l9.849-15.234H11.043l9.85 15.234h.027zm-6.481 3.127a8.35 8.35 0 014.477-2.883L8.907 8.237H2.569l11.87 18.361zm19.77-24.78H7.603L3.07 6.424h35.674l-4.535-4.606zm-1.304 6.419L22.897 23.715a8.346 8.346 0 014.477 2.884l11.87-18.362h-6.339zm-13.114 20.39h1.419a.9.9 0 01.892.908v5.808a.9.9 0 01-.892.906.9.9 0 01-.893-.906v-4.902h-.526a.9.9 0 01-.892-.906.9.9 0 01.892-.908z" class="azcls-1"/></svg><svg preserveAspectRatio="xMidYMid" viewBox="0 0 43.13 39.094" id="icon-microphone" xmlns="http://www.w3.org/2000/svg"><path fill="#a3bbc8" d="M37.869 21.609v7.126a2.18 2.18 0 01-1.051 1.887 2.09 2.09 0 01-1.081.304c-.358 0-.717-.094-1.046-.283-5.96-3.423-12.407-5.52-19.185-6.244l4.159 11.785c.235.663.14 1.406-.255 1.986a2.1 2.1 0 01-1.731.925h-4.858a2.124 2.124 0 01-1.986-1.428l-4.84-13.723a3.34 3.34 0 01-1.919-2.664H2.715c-1.489 0-2.701-1.244-2.701-2.774V12.41c0-1.529 1.212-2.774 2.701-2.774h1.361c.19-1.658 1.566-2.949 3.231-2.949 0 0 6.628-.03 6.684-.034 7.333-.558 14.298-2.706 20.7-6.383a2.07 2.07 0 012.127.021 2.18 2.18 0 011.052 1.887v7.126c2.964.394 5.262 3.002 5.262 6.152 0 3.151-2.298 5.759-5.263 6.153zM4.052 11.776H2.715a.628.628 0 00-.618.634v6.096c0 .35.278.634.618.634h1.337v-7.364zm8.925-2.949h-5.67c-.646 0-1.171.54-1.171 1.203v10.856c0 .489.285.91.693 1.098.151.066.195.077.403.101.025.002 5.745.004 5.745.004V8.827zm.252 15.402H8.31l4.484 12.708c.003.01.015.018.027.018h4.858c.009 0 .015 0 .024-.013.01-.013.007-.019.004-.028l-4.478-12.685zM35.786 2.178c0-.016 0-.028-.022-.041-.026-.016-.043-.007-.056 0-6.403 3.678-13.345 5.885-20.648 6.571v13.498c7.303.684 14.245 2.892 20.648 6.57.013.007.029.016.056 0 .022-.013.022-.026.022-.041V2.178zm2.084 9.291v7.974c1.81-.373 3.179-2.019 3.179-3.987s-1.369-3.614-3.179-3.987z" class="bacls-1"/></svg><svg preserveAspectRatio="xMidYMid" viewBox="0 0 36.41 37.719" id="icon-sheet" xmlns="http://www.w3.org/2000/svg"><path fill="#a3bbc8" d="M35.489 11.742l-17.485 17.64a.914.914 0 01-.396.234l-5.697 1.595a5.076 5.076 0 01-.226.029H7.059a.907.907 0 01-.901-.911c0-.502.404-.909.901-.909h3.94l1.394-5.066a.907.907 0 01.231-.4l.014-.015H7.059a.906.906 0 01-.901-.91c0-.503.404-.91.901-.91h7.384l5.432-5.48H7.059a.906.906 0 01-.901-.91c0-.504.404-.911.901-.911H21.68l8.429-8.503a3.036 3.036 0 014.318 0l1.062 1.071a3.102 3.102 0 010 4.356zM13.718 26.345l-.736 2.677 2.652-.744-1.916-1.933zm15.254-16.308L14.538 24.598l2.827 2.853L31.8 12.889l-2.828-2.852zm5.24-1.364L33.15 7.602a1.241 1.241 0 00-1.766 0l-1.136 1.147 2.828 2.853 1.136-1.147a1.27 1.27 0 000-1.782zm-5.67-2.91a.907.907 0 01-.902-.91V1.98a.17.17 0 00-.168-.17H9.284v5.552c0 1.097-.886 1.99-1.974 1.99H1.807v26.367c0 .093.076.17.168.17h25.497a.17.17 0 00.168-.17V21.817c0-.502.404-.91.902-.91s.902.408.902.91v13.902a1.984 1.984 0 01-1.973 1.991H1.975a1.984 1.984 0 01-1.973-1.991V8.441c0-.241.095-.472.264-.643L7.742.256a.9.9 0 01.639-.267h19.091c1.088 0 1.972.893 1.972 1.991v2.873c0 .502-.404.91-.902.91zM7.478 3.097L3.083 7.532H7.31a.17.17 0 00.168-.17V3.097z" class="bbcls-1"/></svg><svg preserveAspectRatio="xMidYMid" viewBox="0 0 50.875 53.13" id="icon-support" xmlns="http://www.w3.org/2000/svg"><path d="M41.078 33.504c5.411 0 9.797 4.393 9.797 9.812s-4.386 9.813-9.797 9.813c-5.41 0-9.797-4.394-9.797-9.813 0-5.419 4.387-9.812 9.797-9.812z" opacity=".34" fill="#a3bbc8" fill-rule="evenodd"/><path d="M24.557 49.116A24.349 24.349 0 019.829 44.21a.937.937 0 111.125-1.499 22.49 22.49 0 0013.603 4.529c12.506 0 22.681-10.174 22.681-22.68 0-4.254-1.184-8.399-3.424-11.988a.939.939 0 011.592-.993 24.5 24.5 0 013.707 12.981c0 13.54-11.016 24.556-24.556 24.556zm9.32-13.722a.939.939 0 01-.938-.938v-5.5h-6.938a.94.94 0 01-.805-1.419l7.875-13.188a.938.938 0 011.742.472l.001.008v7.609a.937.937 0 11-1.875 0v-4.21l-5.286 8.852h5.286v-1.516a.938.938 0 011.875 0v1.516h2.601a.938.938 0 010 1.876h-2.601v5.5c0 .517-.42.938-.937.938zM17.469 15.767a3.973 3.973 0 00-3.969 3.969.938.938 0 01-1.875 0 5.85 5.85 0 015.844-5.844 5.851 5.851 0 015.844 5.844 12.7 12.7 0 01-3.744 9.039l-4.743 4.743h7.55a.938.938 0 01-.001 1.876h-9.813a.938.938 0 01-.663-1.601l6.344-6.343c2.06-2.06 3.195-4.8 3.195-7.714a3.974 3.974 0 00-3.969-3.969zm24.457-6.299l-4.06.096h-.023a.937.937 0 01-.022-1.874l1.843-.043a22.758 22.758 0 00-15.107-5.768c-12.506 0-22.681 10.175-22.681 22.681 0 6.14 2.415 11.891 6.799 16.193a.936.936 0 11-1.312 1.338C2.616 37.435.001 31.208.001 24.56.001 11.02 11.017.004 24.557.004c3.485 0 6.853.715 10.01 2.126a24.43 24.43 0 016.345 4.112l-.042-1.749a.939.939 0 011.875-.045l.096 4.061a.937.937 0 01-.915.959z" fill="#a3bbc8" fill-rule="evenodd"/></svg><svg preserveAspectRatio="xMidYMid" viewBox="0 0 22.66 14.38" id="icon-team-social-google" xmlns="http://www.w3.org/2000/svg"><path fill="#888" d="M22.661 5.835v.069l-.014 1.816-.001.076H20.14l-.018 2.431-.001.069H18.16v-.069l.019-2.431h-2.507l.001-.076.014-1.816v-.069h2.507l.018-2.438.001-.069h1.961l-.001.069-.018 2.438h2.506zm-13.584 8.28a7.722 7.722 0 01-2.356.235c-1.409-.083-2.689-.525-3.823-1.361C1.436 11.912.515 10.475.128 8.701A6.498 6.498 0 01-.01 6.767a7.048 7.048 0 011.62-4.102A7.123 7.123 0 015.475.207a5.767 5.767 0 011.19-.186C6.892.013 7.12 0 7.348 0a6.743 6.743 0 013.398.932c.701.401 1.098.808 1.269.932-.716.705-1.404 1.395-2.107 2.086-.522-.45-1.099-.863-2.099-1.016a4.423 4.423 0 00-.613-.044c-2.007 0-3.688 1.451-4.136 3.353a3.945 3.945 0 00-.1 1.298c.153 1.768 1.336 3.218 2.935 3.736.407.128.829.189 1.254.189.099 0 .198-.003.298-.009.753-.049 1.458-.249 2.098-.671 1.075-.732 1.423-1.878 1.425-2.161H7.124l.021-2.77.007-.117h6.754c.364 2.107.036 4.323-1.275 6.056-.907 1.195-2.114 1.948-3.554 2.321z" class="bdcls-1"/></svg><svg preserveAspectRatio="xMidYMid" viewBox="0 0 17.19 17.19" id="icon-team-social-inst" xmlns="http://www.w3.org/2000/svg"><path fill="#888" d="M16.908 13.563c-.533 1.96-1.813 3.12-3.797 3.439-.742.119-2.745.191-4.744.191-2.047 0-4.091-.075-4.779-.254-1.95-.504-3.114-1.774-3.424-3.749-.231-1.451-.255-8.191.164-9.654C.874 1.63 2.147.51 4.075.193c.874-.143 2.583-.194 4.31-.194 1.605 0 3.224.044 4.199.098 1.18.062 2.261.442 3.139 1.284.836.801 1.264 1.802 1.372 2.935.128 1.353.211 7.748-.187 9.247zm-1.361-9.102c-.154-1.513-1.079-2.507-2.575-2.742-.741-.112-2.525-.162-4.3-.162-1.712 0-3.416.047-4.166.128-1.5.172-2.508 1.098-2.747 2.59-.247 1.58-.245 7.492-.06 8.68.191 1.236.889 2.085 2.122 2.43.668.188 2.666.254 4.626.254 1.803 0 3.575-.056 4.24-.129 1.514-.166 2.515-1.098 2.754-2.603.247-1.513.247-7.03.106-8.446zm-2.338.594a1.033 1.033 0 01.01-2.065h.012c.567 0 1.026.463 1.021 1.036a1.042 1.042 0 01-1.043 1.029zM8.563 13.01a4.365 4.365 0 01-4.372-4.413 4.443 4.443 0 014.446-4.406 4.37 4.37 0 014.372 4.413 4.451 4.451 0 01-4.446 4.406zm.083-7.265H8.62A2.881 2.881 0 005.744 8.57a2.827 2.827 0 002.803 2.879h.026a2.88 2.88 0 002.876-2.824 2.824 2.824 0 00-2.803-2.88z" class="becls-1"/></svg><svg preserveAspectRatio="xMidYMid" viewBox="0 0 6.1 10.97" id="icon-to-right" xmlns="http://www.w3.org/2000/svg"><path d="M.553 10.967a.557.557 0 01-.411-.183.602.602 0 01.022-.831l4.547-4.475L.164 1.004A.602.602 0 01.142.173.552.552 0 01.943.15L5.92 5.048l.014.014a.545.545 0 01.113.169h.001a.611.611 0 01.052.244v.003a.609.609 0 01-.053.249l-.001.001v.002a.594.594 0 01-.111.164l-.015.014-4.977 4.899a.551.551 0 01-.39.16z" fill="#262626" fill-rule="evenodd"/></svg><svg preserveAspectRatio="xMidYMid" viewBox="0 0 53.75 36.44" id="icon-truck" xmlns="http://www.w3.org/2000/svg"><path d="M45.968 17.252v1.992a.786.786 0 01-1.571 0v-1.992a.786.786 0 111.571 0zM35.944 13.53V6.14c0-.434.351-.786.785-.786h4.301a4.945 4.945 0 014.938 4.941v3.235a.786.786 0 01-.786.787h-8.453a.785.785 0 01-.785-.787zm1.571-.786h6.882v-2.449a3.371 3.371 0 00-3.367-3.368h-3.515v5.817zm10.809 12.423h-2.782a4.984 4.984 0 01-4.912 4.192 4.983 4.983 0 01-4.912-4.192H24.466a4.982 4.982 0 01-4.911 4.192 4.983 4.983 0 01-4.912-4.192h-2.419a.786.786 0 01-.785-.787V.794c0-.434.351-.786.785-.786h6.046a.786.786 0 010 1.572h-5.261v22.014h1.634a4.983 4.983 0 014.912-4.193 4.982 4.982 0 014.911 4.193h8.336v-1.125a.786.786 0 111.571 0v1.125h1.345a4.983 4.983 0 014.912-4.193 4.983 4.983 0 014.912 4.193h1.997V10.295c0-3.591-2.92-6.513-6.509-6.513h-6.657V18.8a.786.786 0 01-1.571 0V1.58h-11.39a.785.785 0 010-1.572h12.175c.434 0 .786.352.786.786v1.415h6.657c4.455 0 8.079 3.628 8.079 8.086V24.38a.786.786 0 01-.785.787zm-28.769-4.193a3.409 3.409 0 00-3.404 3.406 3.41 3.41 0 003.404 3.407 3.409 3.409 0 003.403-3.407 3.409 3.409 0 00-3.403-3.406zm21.075 0a3.408 3.408 0 00-3.403 3.406v.001a3.409 3.409 0 003.403 3.406 3.41 3.41 0 003.404-3.407 3.409 3.409 0 00-3.404-3.406zm0 5.433a2.028 2.028 0 01-2.025-2.027c0-1.117.909-2.026 2.025-2.026a2.028 2.028 0 010 4.053zm0-2.481a.454.454 0 100 .909.454.454 0 000-.909zm-21.075 2.481a2.028 2.028 0 010-4.053 2.027 2.027 0 010 4.053zm0-2.481a.455.455 0 10-.001.909.455.455 0 00.001-.909zM9.527 17.352H3.925a.786.786 0 010-1.572h5.602a.785.785 0 010 1.572zM9.003 6.346H2.877a.786.786 0 010-1.572h6.126a.786.786 0 110 1.572zm-.785 5.503a.786.786 0 01-.785.786H.783a.785.785 0 010-1.572h6.65c.433 0 .785.352.785.786zM.783 22.069H4.17a.786.786 0 010 1.573H.783a.786.786 0 010-1.573zm6.006 0h.644a.786.786 0 010 1.573h-.644a.787.787 0 010-1.573z" fill-rule="evenodd" fill="#a3bbc8"/><circle cx="43.938" cy="26.645" r="9.813" opacity=".34" fill="#a3bbc8"/></svg><svg preserveAspectRatio="xMidYMid" viewBox="0 0 14.31 11.62" id="icon-twitter" xmlns="http://www.w3.org/2000/svg"><path d="M14.31 1.397c-.105.159-.21.307-.332.45-.311.384-.67.724-1.072 1.015l-.05.093c.013.433-.007.867-.065 1.3a8.702 8.702 0 01-2.374 4.92 7.904 7.904 0 01-4.049 2.249 9.057 9.057 0 01-1.636.192c-.089.002-.177.004-.265.004a8.219 8.219 0 01-4.416-1.266l-.07-.043c.232.024.461.037.689.037a5.95 5.95 0 002.248-.438 5.825 5.825 0 001.4-.817c-1.519-.049-2.465-1.147-2.711-2.035.182.035.364.052.545.052a3.1 3.1 0 00.712-.085l.044-.022c-.827-.192-1.46-.631-1.894-1.344a2.859 2.859 0 01-.421-1.558c.415.22.842.34 1.303.351C1.279 4.008.867 3.421.703 2.675A2.881 2.881 0 011.037.552c1.571 1.871 3.571 2.897 6.021 3.066-.015-.12-.031-.219-.047-.323a2.845 2.845 0 01.448-1.914C7.931.646 8.598.19 9.455.053c.182-.03.36-.045.533-.045.768 0 1.446.294 2.028.863.036.032.067.05.108.05A5.795 5.795 0 0013.88.262l.038-.022c-.213.68-.64 1.206-1.246 1.596a5.654 5.654 0 001.638-.439z" class="bhcls-1"/></svg><svg aria-hidden="true" data-prefix="fas" data-icon="user" class="bisvg-inline--fa bifa-user bifa-w-14" viewBox="0 0 448 512" id="icon-user" xmlns="http://www.w3.org/2000/svg"><path fill="#222933" d="M224 256c70.7 0 128-57.3 128-128S294.7 0 224 0 96 57.3 96 128s57.3 128 128 128zm89.6 32h-16.7c-22.2 10.2-46.9 16-72.9 16s-50.6-5.8-72.9-16h-16.7C60.2 288 0 348.2 0 422.4V464c0 26.5 21.5 48 48 48h352c26.5 0 48-21.5 48-48v-41.6c0-74.2-60.2-134.4-134.4-134.4z"/></svg><svg aria-hidden="true" data-prefix="fas" data-icon="user" class="bjsvg-inline--fa bjfa-user bjfa-w-14" viewBox="0 0 448 512" id="icon-user-grey" xmlns="http://www.w3.org/2000/svg"><path fill="green" d="M224 256c70.7 0 128-57.3 128-128S294.7 0 224 0 96 57.3 96 128s57.3 128 128 128zm89.6 32h-16.7c-22.2 10.2-46.9 16-72.9 16s-50.6-5.8-72.9-16h-16.7C60.2 288 0 348.2 0 422.4V464c0 26.5 21.5 48 48 48h352c26.5 0 48-21.5 48-48v-41.6c0-74.2-60.2-134.4-134.4-134.4z"/></svg><svg viewBox="0 0 20 20" id="ison-filter" xmlns="http://www.w3.org/2000/svg"><path d="M19.063 0H.938C.105 0-.313 1.012.277 1.602L7.5 8.824v8.051c0 .305.148.594.398.77l3.125 2.183a.938.938 0 001.477-.765V8.823l7.223-7.222c.59-.59.172-1.602-.66-1.602zm0 0"/></svg><svg preserveAspectRatio="xMidYMid" viewBox="0 0 127 127" id="play-btn"><circle cx="63.5" cy="63.5" r="63.5" class="blcls-1" fill="#a3bbc8" opacity=".4"/><circle cx="63" cy="63" r="49" class="blcls-2" fill="#a3bbc8"/><path fill="#fff" d="M73.684 64.74L57.64 74.536a3.236 3.236 0 01-3.062.144c-.972-.47-1.579-1.387-1.579-2.385V52.7c0-.999.607-1.917 1.579-2.386a3.24 3.24 0 013.062.143l16.044 9.798c.822.502 1.315 1.343 1.315 2.241 0 .9-.493 1.741-1.315 2.244z" class="blcls-3"/></svg><svg preserveAspectRatio="xMidYMid" viewBox="0 0 15.28 15.281" id="search" xmlns="http://www.w3.org/2000/svg"><path d="M14.601 14.61c-.422.454-1.994 1.415-3.731-.292l-2.058-2.35a6.283 6.283 0 01-2.549.539c-3.468 0-6.278-2.802-6.278-6.257 0-3.456 2.807-6.254 6.275-6.254 3.465 0 6.279 2.801 6.279 6.257 0 .929-.203 1.812-.568 2.604l2.336 2.036c1.703 1.747.746 3.266.294 3.717zM6.26 1.305c-2.742 0-4.965 2.216-4.965 4.948s2.22 4.948 4.965 4.948c2.742 0 4.966-2.216 4.966-4.948S9.002 1.305 6.26 1.305zm7.199 10.561l-2.162-1.88a6.254 6.254 0 01-1.363 1.34l1.872 2.187c.293.324 1.126.867 1.881.226.209-.176.633-1.068-.228-1.873zm-7.685-1.781a4.205 4.205 0 01-2.143-1.131 4.172 4.172 0 01-1.136-2.136c-.065-.354.128-.676.487-.742.356-.065.68.131.746.484.096.582.355 1.067.779 1.489.421.389.942.678 1.494.777.325.066.552.39.487.743a.644.644 0 01-.714.516z" class="bmcls-1"/></svg></svg>